<svg width="195" height="72" viewBox="0 0 195 72" fill="none" xmlns="http://www.w3.org/2000/svg">
<g filter="url(#filter0_i_0_1)">
<ellipse cx="97.5" cy="42" rx="97.5" ry="30" fill="#22863E"/>
</g>
<path d="M194.5 42C194.5 45.9055 191.926 49.7212 187.044 53.273C182.172 56.8168 175.091 60.0291 166.296 62.7353C148.711 68.1459 124.388 71.5 97.5 71.5C70.6117 71.5 46.2886 68.1459 28.7041 62.7353C19.9088 60.0291 12.8276 56.8168 7.95617 53.273C3.07378 49.7212 0.5 45.9055 0.5 42C0.5 38.0945 3.07378 34.2787 7.95617 30.727C12.8276 27.1832 19.9088 23.9709 28.7041 21.2647C46.2886 15.8541 70.6117 12.5 97.5 12.5C124.388 12.5 148.711 15.8541 166.296 21.2647C175.091 23.9709 182.172 27.1832 187.044 30.727C191.926 34.2787 194.5 38.0945 194.5 42Z" stroke="black"/>
<g filter="url(#filter1_f_0_1)">
<line x1="56" y1="64.5" x2="158" y2="64.5" stroke="black"/>
</g>
<g filter="url(#filter2_d_0_1)">
<path d="M108.634 55.7989C108.578 57.0765 107.026 57.8558 103.98 58.1365C103.867 58.3612 103.867 58.6911 103.98 59.1264C106.633 59.0421 108.514 59 109.624 59C111.379 59 113.379 59.0421 115.626 59.1264C115.738 58.6911 115.738 58.3612 115.626 58.1365C112.551 57.8558 111 57.0765 110.971 55.7989C110.831 51.4325 110.761 47.6277 110.761 44.3845C110.761 39.9479 110.817 36.0238 110.929 32.6121H111.14L121.417 58.4735H121.628L131.231 33.1175H131.421C131.561 37.3435 131.631 41.0992 131.631 44.3845C131.631 48.9475 131.561 52.8435 131.421 56.0727C131.392 56.4377 131.224 56.7536 130.915 57.0204C130.62 57.2731 130.178 57.4767 129.588 57.6311C128.999 57.7715 128.5 57.8698 128.093 57.926C127.686 57.9821 127.166 58.0383 126.535 58.0944C126.422 58.3191 126.422 58.649 126.535 59.0842C128.921 59 131.364 58.9579 133.863 58.9579C136.854 58.9579 139.732 59 142.498 59.0842C142.61 58.8315 142.61 58.5016 142.498 58.0944C137.837 57.8136 135.492 57.1538 135.464 56.1148C135.296 51.7063 135.211 47.2767 135.211 42.8261C135.211 38.5159 135.267 34.5917 135.38 31.0537C135.408 30.0147 137.752 29.3548 142.414 29.074C142.526 28.6669 142.526 28.337 142.414 28.0842C139.648 28.1685 135.969 28.2106 131.378 28.2106L122.407 51.6291L113.772 28.2106C110.347 28.2106 107.314 28.1544 104.675 28.0421C104.534 28.3229 104.534 28.5897 104.675 28.8424C106.345 29.0811 107.433 29.4321 107.939 29.8954C108.458 30.3447 108.732 31.3906 108.76 33.0333C108.858 36.4871 108.908 39.7514 108.908 42.8261C108.908 47.0802 108.816 51.4044 108.634 55.7989ZM107.77 55.7989C107.953 51.3764 108.044 47.0521 108.044 42.8261C108.044 39.7514 107.995 36.4871 107.897 33.0333C107.869 31.7416 107.616 30.9133 107.139 30.5482C106.675 30.1692 105.664 29.8743 104.106 29.6637C103.713 28.8073 103.727 27.9649 104.148 27.1365C107.377 27.2769 111.575 27.3471 116.742 27.3471L123.649 45.7955L130.768 27.3471C134.53 27.3471 138.686 27.291 143.235 27.1787C143.516 28.0913 143.544 28.9968 143.319 29.8954C140.216 30.2043 138.651 30.6184 138.623 31.1379C138.497 33.7774 138.433 37.6735 138.433 42.8261C138.433 48.1472 138.525 52.5487 138.707 56.0306C138.735 56.55 140.301 56.9642 143.404 57.2731C143.628 58.1716 143.6 59.0772 143.319 59.9898C138.77 59.8775 136.124 59.8213 135.38 59.8213C134.257 59.8213 131.112 59.8775 125.945 59.9898C125.594 59.007 125.594 58.1014 125.945 57.2731C128.992 56.9642 130.529 56.5641 130.557 56.0727C130.697 52.7874 130.768 48.8913 130.768 44.3845C130.768 40.8745 130.754 38.2982 130.726 36.6556L122.217 59.337H120.806L111.624 36.1923V44.3845C111.624 47.6277 111.695 51.4325 111.835 55.7989C111.863 56.5571 113.4 57.0625 116.447 57.3152C116.798 58.1576 116.798 59.0632 116.447 60.0319C112.249 59.8635 107.89 59.8635 103.369 60.0319C103.032 59.0632 103.032 58.1576 103.369 57.3152C106.275 57.0344 107.742 56.529 107.77 55.7989ZM146.405 51.6028C147.198 51.6028 147.594 51.8906 147.594 52.4662C147.594 53.0418 147.198 53.3297 146.405 53.3297C146.285 53.3297 146.173 53.3068 146.068 53.2612C145.966 53.2156 145.876 53.1542 145.799 53.0769C145.722 52.9962 145.66 52.9032 145.615 52.7979C145.569 52.6926 145.546 52.582 145.546 52.4662C145.546 52.3504 145.569 52.2398 145.615 52.1345C145.66 52.0292 145.722 51.938 145.799 51.8607C145.876 51.78 145.966 51.7168 146.068 51.6712C146.173 51.6256 146.285 51.6028 146.405 51.6028ZM145.92 52.0134C145.815 52.1363 145.762 52.2872 145.762 52.4662C145.762 52.5575 145.776 52.6435 145.804 52.7242C145.836 52.8014 145.878 52.8698 145.931 52.9295C145.983 52.9857 146.043 53.0313 146.11 53.0664C146.18 53.098 146.254 53.1138 146.331 53.1138C146.405 53.1138 146.477 53.098 146.547 53.0664C146.617 53.0313 146.678 52.9857 146.731 52.9295C146.784 52.8698 146.826 52.8014 146.857 52.7242C146.889 52.6435 146.905 52.5575 146.905 52.4662C146.905 52.3749 146.889 52.2907 146.857 52.2135C146.826 52.1328 146.784 52.0643 146.731 52.0082C146.678 51.9485 146.617 51.9029 146.547 51.8713C146.477 51.8362 146.405 51.8186 146.331 51.8186C146.257 51.8186 146.185 51.8344 146.115 51.866C146.045 51.8976 145.98 51.9467 145.92 52.0134ZM148.047 58.7578C147.212 58.6806 146.791 58.5121 146.784 58.2524C146.749 57.1994 146.734 55.906 146.742 54.3721C146.713 54.316 146.652 54.2703 146.557 54.2352C146.069 54.4634 145.562 54.6073 145.036 54.6669C145.015 54.7512 145.015 54.8337 145.036 54.9144C145.432 54.9355 145.734 55.0074 145.941 55.1303C145.973 56.4395 145.969 57.4802 145.931 58.2524C145.924 58.5121 145.625 58.6806 145.036 58.7578C145.001 58.8456 145.001 58.9316 145.036 59.0158C146.043 58.9947 147.047 58.9947 148.047 59.0158C148.082 58.9316 148.082 58.8456 148.047 58.7578ZM148.242 58.563C148.298 58.7806 148.298 58.993 148.242 59.2001C147.112 59.165 145.98 59.165 144.846 59.2001C144.786 58.993 144.786 58.7806 144.846 58.563C145.418 58.5069 145.708 58.3998 145.715 58.2418C145.76 57.2591 145.764 56.264 145.725 55.2566C145.49 55.1864 145.197 55.1408 144.846 55.1197C144.765 54.9091 144.765 54.6863 144.846 54.4511C145.376 54.423 145.973 54.2651 146.636 53.9772C147.015 54.0053 147.298 54.1194 147.484 54.3195C147.47 56.0464 147.484 57.3538 147.526 58.2418C147.537 58.3998 147.775 58.5069 148.242 58.563ZM152.101 58.7578C151.266 58.6806 150.845 58.5121 150.838 58.2524C150.803 56.3079 150.788 53.9369 150.796 51.1394C150.767 51.0833 150.706 51.0359 150.611 50.9973C150.123 51.2289 149.616 51.3728 149.09 51.429C149.069 51.5168 149.069 51.5992 149.09 51.6765C149.486 51.701 149.788 51.773 149.995 51.8923C150.023 54.5318 150.02 56.6518 149.985 58.2524C149.978 58.5121 149.679 58.6806 149.09 58.7578C149.055 58.8456 149.055 58.9316 149.09 59.0158C149.904 58.9877 150.908 58.9877 152.101 59.0158C152.136 58.9316 152.136 58.8456 152.101 58.7578ZM152.291 58.563C152.35 58.7806 152.35 58.993 152.291 59.2001C150.939 59.172 149.807 59.172 148.895 59.2001C148.839 58.993 148.839 58.7806 148.895 58.563C149.471 58.5069 149.762 58.3998 149.769 58.2418C149.811 56.1815 149.814 54.1089 149.779 52.0239C149.544 51.9502 149.249 51.9029 148.895 51.8818C148.818 51.6747 148.818 51.4518 148.895 51.2131C149.428 51.1851 150.025 51.0271 150.685 50.7393C151.068 50.7674 151.352 50.8832 151.538 51.0868C151.524 54.2142 151.538 56.5992 151.58 58.2418C151.587 58.3998 151.824 58.5069 152.291 58.563ZM155.592 54.5564C155.873 54.5564 156.076 54.6476 156.203 54.8302C156.329 55.0092 156.392 55.2338 156.392 55.5041C156.392 55.6059 156.375 55.7217 156.34 55.8516H154.286C154.395 55.4128 154.57 55.0881 154.813 54.8775C155.058 54.6634 155.318 54.5564 155.592 54.5564ZM154.234 56.2096H157.103C157.159 56.0341 157.187 55.8533 157.187 55.6673C157.187 55.2566 157.07 54.9126 156.834 54.6354C156.603 54.3546 156.232 54.2142 155.724 54.2142C155.06 54.2142 154.502 54.4546 154.049 54.9355C153.596 55.4163 153.37 56.0271 153.37 56.7677C153.37 57.5574 153.586 58.1523 154.018 58.5525C154.449 58.9526 154.957 59.1527 155.539 59.1527C155.971 59.1527 156.371 59.0369 156.74 58.8052C157.112 58.57 157.384 58.2173 157.556 57.7469C157.507 57.6908 157.438 57.6522 157.35 57.6311C157.336 57.6522 157.294 57.7101 157.224 57.8049C157.157 57.8961 157.108 57.9628 157.077 58.0049C157.045 58.0435 156.987 58.1014 156.903 58.1787C156.822 58.2524 156.743 58.3068 156.666 58.3419C156.592 58.377 156.497 58.4121 156.382 58.4472C156.266 58.4788 156.139 58.4946 156.003 58.4946C155.462 58.4946 155.032 58.3349 154.713 58.0155C154.393 57.6925 154.227 57.2591 154.212 56.715C154.212 56.5922 154.219 56.4237 154.234 56.2096ZM157.266 57.3837C157.487 57.4328 157.666 57.5434 157.803 57.7154C157.603 58.2629 157.294 58.6753 156.877 58.9526C156.459 59.2299 156.013 59.3685 155.539 59.3685C154.893 59.3685 154.334 59.1509 153.86 58.7157C153.389 58.2805 153.154 57.6311 153.154 56.7677C153.154 55.9849 153.395 55.3286 153.876 54.7986C154.36 54.2651 155.044 53.9983 155.929 53.9983C157.266 53.9983 157.935 54.5546 157.935 55.6673C157.935 55.8849 157.884 56.1376 157.782 56.4254H154.955V56.7677C154.972 57.1924 155.088 57.5381 155.302 57.8049C155.516 58.0681 155.811 58.2225 156.187 58.2682C156.408 58.2471 156.59 58.1716 156.734 58.0418C156.878 57.9119 157.056 57.6925 157.266 57.3837ZM156.176 55.5041C156.176 55.118 156.046 54.8846 155.787 54.8038C155.478 54.8986 155.248 55.1759 155.097 55.6357H156.166C156.166 55.6217 156.168 55.6006 156.171 55.5725C156.175 55.5444 156.176 55.5216 156.176 55.5041ZM159.778 59.0632C159.609 59.1193 159.444 59.1878 159.283 59.2685C159.118 59.1667 159.009 59.0632 158.956 58.9579C158.963 58.9368 158.974 58.8649 158.988 58.742C159.002 58.6192 159.016 58.4753 159.03 58.3103C159.047 58.1453 159.061 57.9751 159.072 57.7996C159.083 57.6241 159.088 57.4749 159.088 57.3521C159.253 57.2749 159.507 57.2362 159.851 57.2362C159.89 57.2362 159.928 57.2362 159.967 57.2362C160.006 57.2362 160.046 57.238 160.088 57.2415C160.341 58.0628 160.687 58.5086 161.125 58.5788C161.304 58.5507 161.441 58.4858 161.536 58.384C161.634 58.2787 161.683 58.1611 161.683 58.0312C161.683 57.9365 161.657 57.8487 161.604 57.768C161.552 57.6838 161.482 57.6065 161.394 57.5363C161.306 57.4661 161.203 57.4012 161.083 57.3415C160.967 57.2819 160.845 57.224 160.715 57.1678C160.585 57.1081 160.453 57.052 160.32 56.9993C160.186 56.9432 160.058 56.8852 159.935 56.8256C159.806 56.7659 159.683 56.694 159.567 56.6097C159.451 56.522 159.349 56.4237 159.262 56.3149C159.174 56.2026 159.104 56.0797 159.051 55.9463C159.002 55.813 158.977 55.669 158.977 55.5146C158.977 55.3496 159.005 55.1776 159.061 54.9986C159.118 54.8196 159.214 54.6564 159.351 54.509C159.488 54.3616 159.672 54.2405 159.904 54.1457C160.136 54.0474 160.427 53.9983 160.778 53.9983C161.167 53.9983 161.455 54.0194 161.641 54.0615L161.836 53.9983H162.194C162.24 54.2966 162.294 54.5757 162.357 54.8354C162.424 55.0952 162.498 55.3374 162.578 55.562C162.428 55.7129 162.245 55.7884 162.031 55.7884C161.912 55.648 161.801 55.5216 161.699 55.4093C161.597 55.2935 161.499 55.1934 161.404 55.1092C161.313 55.025 161.222 54.9565 161.131 54.9039C161.043 54.8512 160.952 54.8144 160.857 54.7933C160.625 54.8319 160.509 54.9372 160.509 55.1092C160.509 55.2461 160.569 55.3654 160.688 55.4672C160.808 55.569 160.957 55.662 161.136 55.7463C161.315 55.8305 161.51 55.9112 161.72 55.9885C161.934 56.0622 162.136 56.1411 162.326 56.2254C162.463 56.285 162.591 56.3623 162.71 56.457C162.833 56.5518 162.94 56.6624 163.031 56.7887C163.123 56.9116 163.194 57.0502 163.247 57.2047C163.3 57.3556 163.326 57.5188 163.326 57.6943C163.326 57.954 163.259 58.1874 163.126 58.3945C162.996 58.6016 162.822 58.7771 162.605 58.921C162.391 59.0649 162.145 59.1755 161.868 59.2527C161.59 59.3299 161.308 59.3685 161.02 59.3685C160.525 59.3685 160.111 59.2668 159.778 59.0632ZM160.983 59.1527C161.422 59.1527 161.798 59.0228 162.11 58.7631C162.422 58.5033 162.578 58.212 162.578 57.8891C162.578 57.5732 162.482 57.3012 162.289 57.073C162.096 56.8414 161.862 56.6624 161.589 56.536C161.315 56.4096 161.039 56.2938 160.762 56.1885C160.485 56.0797 160.25 55.9534 160.057 55.8094C159.864 55.6655 159.767 55.4971 159.767 55.304C159.767 55.0583 159.858 54.8723 160.041 54.7459C160.223 54.6196 160.437 54.5564 160.683 54.5564C160.943 54.5564 161.174 54.6371 161.378 54.7986C161.582 54.96 161.831 55.218 162.126 55.5725C162.22 55.5725 162.289 55.5497 162.331 55.5041C162.201 55.132 162.008 54.8249 161.752 54.5827C161.499 54.337 161.174 54.2142 160.778 54.2142C160.213 54.2142 159.807 54.3493 159.562 54.6196C159.316 54.8863 159.193 55.1847 159.193 55.5146C159.193 55.7954 159.286 56.0358 159.472 56.2359C159.662 56.4325 159.888 56.5851 160.151 56.694C160.418 56.7993 160.683 56.9046 160.946 57.0099C161.21 57.1151 161.434 57.252 161.62 57.4205C161.806 57.589 161.899 57.7926 161.899 58.0312C161.899 58.2313 161.813 58.4103 161.641 58.5683C161.469 58.7262 161.229 58.8052 160.92 58.8052C160.548 58.8052 160.26 58.6876 160.057 58.4524C159.856 58.2138 159.688 57.8821 159.551 57.4574C159.428 57.4574 159.346 57.4679 159.304 57.489C159.304 57.7417 159.291 58.0312 159.267 58.3577C159.242 58.6841 159.218 58.8772 159.193 58.9368C159.218 58.9719 159.251 59.0035 159.293 59.0316C159.437 58.9298 159.548 58.8227 159.625 58.7104C159.934 58.8824 160.174 58.9982 160.346 59.0579C160.522 59.1211 160.734 59.1527 160.983 59.1527Z" fill="#DDA333"/>
</g>
<g filter="url(#filter3_f_0_1)">
<line x1="10" y1="36.5" x2="102" y2="36.5" stroke="black"/>
</g>
<g filter="url(#filter4_i_0_1)">
<path d="M68.3342 3.11982C68.3342 3.18631 68.3009 3.28605 68.2345 3.41904C68.168 3.53541 68.0848 3.66008 67.9851 3.79307C67.8854 3.90944 67.7773 4.0258 67.6609 4.14216C67.5612 4.25853 67.4698 4.34996 67.3867 4.41645C67.3202 4.46632 67.2287 4.49957 67.1124 4.51619C66.996 4.53282 66.9046 4.56606 66.8381 4.61593C66.7051 4.7323 66.5638 4.86529 66.4142 5.0149C66.2812 5.16451 66.1482 5.30581 66.0152 5.4388C65.8822 5.57178 65.7492 5.68815 65.6163 5.78789C65.4999 5.87101 65.3835 5.91257 65.2672 5.91257C64.835 5.91257 64.4277 5.82114 64.0453 5.63828C63.6796 5.4388 63.264 5.231 62.7986 5.0149C62.3331 4.78217 61.7762 4.57437 61.1279 4.39152C60.4962 4.19203 59.6817 4.09229 58.6843 4.09229C58.3518 4.09229 58.0193 4.13385 57.6869 4.21697C57.3544 4.28346 57.0468 4.41645 56.7642 4.61593C56.5315 4.79879 56.2988 5.03152 56.0661 5.31412C55.8333 5.59672 55.5757 5.86269 55.2931 6.11205C55.1268 6.26166 54.9523 6.36971 54.7694 6.43621C54.5866 6.5027 54.4536 6.5775 54.3705 6.66062C54.2707 6.76036 54.171 6.90997 54.0712 7.10946C53.9881 7.30894 53.8967 7.47517 53.797 7.60816C53.5975 7.85751 53.4396 8.06531 53.3232 8.23154C53.2068 8.38115 53.0572 8.60557 52.8744 8.90479C52.8245 8.98791 52.758 9.0544 52.6749 9.10428C52.6084 9.13752 52.5502 9.1957 52.5003 9.27882C52.4505 9.34532 52.4172 9.43674 52.4006 9.55311C52.4006 9.65285 52.3673 9.74428 52.3008 9.8274C52.2343 9.92714 52.1762 10.0103 52.1263 10.0767C52.0764 10.1266 52.0182 10.218 51.9517 10.351C51.9019 10.484 51.8271 10.6835 51.7273 10.9495C51.6442 11.1988 51.5278 11.5729 51.3782 12.0716C51.3616 12.1381 51.3201 12.3375 51.2536 12.67C51.1871 12.9859 51.104 13.2851 51.0042 13.5677C50.9543 13.7007 50.8463 13.8586 50.6801 14.0415C50.5138 14.2243 50.4307 14.4487 50.4307 14.7147C50.4307 14.8311 50.439 14.9641 50.4556 15.1137C50.4723 15.2633 50.4806 15.4212 50.4806 15.5874C50.4806 15.87 50.4141 16.1194 50.2811 16.3355C50.1481 16.535 50.0816 16.7511 50.0816 16.9838C50.0816 17.1667 50.1065 17.3911 50.1564 17.6571C50.2229 17.9064 50.2645 18.1475 50.2811 18.3802C50.2977 18.7791 50.306 19.1864 50.306 19.602C50.3226 20.0176 50.3476 20.4332 50.3808 20.8488C50.4141 21.2477 50.4639 21.6384 50.5304 22.0207C50.5969 22.4031 50.6967 22.7522 50.8297 23.068V23.1179C50.8297 23.1511 50.8214 23.1927 50.8047 23.2426C50.8047 23.2758 50.8047 23.309 50.8047 23.3423C50.8047 23.3922 50.813 23.4171 50.8297 23.4171C50.9627 23.5335 51.0541 23.6997 51.104 23.9158C51.1704 24.1153 51.2453 24.3563 51.3284 24.6389C51.4115 24.9049 51.5362 25.1958 51.7024 25.5117C51.8686 25.8109 52.1346 26.1101 52.5003 26.4093C52.6499 26.5423 52.8577 26.6587 53.1237 26.7584C53.4063 26.8582 53.6889 26.9911 53.9715 27.1574C54.2707 27.3402 54.545 27.5314 54.7944 27.7309C55.0437 27.9304 55.21 28.0467 55.2931 28.08C55.4759 28.1299 55.7419 28.1714 56.091 28.2047C56.4567 28.2213 56.8307 28.2296 57.2131 28.2296C57.7118 28.2296 58.1357 28.2213 58.4848 28.2047C58.8339 28.1714 59.1497 28.1215 59.4323 28.0551C59.7149 27.9886 59.9809 27.8971 60.2302 27.7808C60.4796 27.6644 60.7539 27.5148 61.0531 27.3319C61.1695 27.2654 61.3025 27.2073 61.4521 27.1574C61.6017 27.1075 61.718 27.041 61.8012 26.9579C61.9508 26.8249 62.0838 26.6421 62.2001 26.4093C62.3331 26.1766 62.516 25.9937 62.7487 25.8608C62.8318 25.7943 62.9482 25.7693 63.0978 25.7859C63.264 25.7859 63.3887 25.7444 63.4718 25.6613C63.6048 25.5283 63.6962 25.3537 63.7461 25.1376C63.8126 24.9049 63.9123 24.7054 64.0453 24.5392C64.1783 24.3729 64.3279 24.24 64.4942 24.1402C64.677 24.0405 64.835 23.9241 64.9679 23.7911C65.0677 23.6914 65.1674 23.5667 65.2672 23.4171C65.3835 23.2675 65.4999 23.1262 65.6163 22.9932C65.7492 22.8436 65.8989 22.7272 66.0651 22.6441C66.2313 22.5444 66.4308 22.4945 66.6635 22.4945H66.8381C66.7051 22.827 66.5139 23.1179 66.2646 23.3672C66.0318 23.6166 65.7908 23.8826 65.5415 24.1652L63.8459 26.0353C63.663 26.2348 63.4968 26.5174 63.3471 26.8831C63.1975 27.2488 62.9981 27.5813 62.7487 27.8805C62.6656 27.9636 62.5492 28.0467 62.3996 28.1299C62.25 28.213 62.117 28.321 62.0006 28.454C61.8178 28.6369 61.6848 28.7948 61.6017 28.9278C61.5352 29.0608 61.4188 29.2104 61.2526 29.3766C61.1528 29.4597 61.0199 29.5179 60.8536 29.5512C60.704 29.5678 60.5295 29.6343 60.33 29.7506C60.2635 29.7839 60.2219 29.8587 60.2053 29.9751C60.2053 30.0748 60.1638 30.1247 60.0806 30.1247C60.0474 30.1247 60.0058 30.1164 59.956 30.0997C59.9227 30.0997 59.8895 30.0997 59.8562 30.0997C59.7731 30.0997 59.69 30.1496 59.6069 30.2494C59.5404 30.3657 59.4656 30.4488 59.3824 30.4987C59.1165 30.5984 58.7923 30.6566 58.41 30.6733C58.0276 30.7065 57.6702 30.773 57.3378 30.8727C56.9554 30.9725 56.4816 31.0223 55.9165 31.0223C55.3845 31.0223 54.8609 30.9808 54.3455 30.8977C53.8302 30.8146 53.4063 30.6816 53.0738 30.4987C52.6749 30.2826 52.1845 30.0582 51.6027 29.8255C51.0375 29.5927 50.5304 29.3184 50.0816 29.0026C50.0484 28.9693 50.0151 28.9028 49.9819 28.8031C49.9486 28.7034 49.9154 28.6535 49.8821 28.6535C49.7658 28.587 49.6494 28.5454 49.533 28.5288C49.4167 28.4956 49.292 28.4041 49.159 28.2545C49.026 28.1049 48.8847 27.8805 48.7351 27.5813C48.5855 27.2654 48.4109 26.9911 48.2115 26.7584C47.8624 26.3761 47.6213 25.8358 47.4883 25.1376C47.3554 24.4228 47.2224 23.6665 47.0894 22.8685C47.0894 22.8353 47.0561 22.7854 46.9896 22.7189C46.9398 22.6524 46.9148 22.5776 46.9148 22.4945C46.9148 22.3781 46.8899 22.2119 46.84 21.9958C46.8068 21.7797 46.7652 21.547 46.7153 21.2976C46.6821 21.0316 46.6405 20.774 46.5907 20.5246C46.5574 20.2753 46.5408 20.0592 46.5408 19.8763C46.5408 19.7267 46.5657 19.5521 46.6156 19.3527C46.6655 19.1532 46.6987 18.962 46.7153 18.7791C46.7652 18.3303 46.8068 17.8649 46.84 17.3828C46.8899 16.8841 46.9481 16.3937 47.0146 15.9116C47.0811 15.4129 47.1642 14.9391 47.2639 14.4903C47.3637 14.0248 47.4967 13.5926 47.6629 13.1937V13.1687C47.6629 13.1355 47.6546 13.0939 47.638 13.044C47.638 12.9775 47.638 12.9277 47.638 12.8944C47.638 12.8446 47.6463 12.8113 47.6629 12.7947C47.7793 12.7116 47.8457 12.5952 47.8624 12.4456C47.879 12.2794 47.9372 12.0965 48.0369 11.897C48.0702 11.7807 48.145 11.6643 48.2613 11.5479C48.3943 11.4149 48.5024 11.2736 48.5855 11.124C48.6686 10.991 48.7351 10.8248 48.785 10.6253C48.8515 10.4258 48.9097 10.2845 48.9595 10.2014C49.0925 10.0186 49.2837 9.81909 49.533 9.60298C49.799 9.37025 50.0484 9.13752 50.2811 8.90479C50.6967 8.47258 51.104 8.04868 51.5029 7.6331C51.9185 7.20089 52.3756 6.76036 52.8744 6.31153C53.3398 5.87932 53.8053 5.48867 54.2707 5.13957C54.7362 4.79048 55.2016 4.43307 55.6671 4.06736C55.8167 3.95099 55.9081 3.81801 55.9414 3.66839C55.9913 3.51878 56.0827 3.40242 56.2157 3.3193C56.4983 3.08657 56.8723 2.87047 57.3378 2.67099C57.8198 2.4715 58.2604 2.2554 58.6593 2.02267C58.7591 1.9728 58.8754 1.89799 59.0084 1.79825C59.158 1.68189 59.2993 1.57383 59.4323 1.47409C59.5653 1.35773 59.6983 1.2663 59.8313 1.19981C59.9643 1.11669 60.0806 1.07513 60.1804 1.07513C60.2136 1.07513 60.2552 1.08344 60.3051 1.10007C60.3549 1.10007 60.3965 1.10007 60.4297 1.10007C60.5128 1.10007 60.6292 1.0502 60.7788 0.950454C60.9284 0.850713 61.103 0.800843 61.3025 0.800843C61.5352 0.800843 61.7929 0.83409 62.0755 0.900584C62.3581 0.967078 62.6323 1.04188 62.8983 1.125C63.1809 1.20812 63.4386 1.29955 63.6713 1.39929C63.904 1.49903 64.0952 1.57383 64.2448 1.62371C64.3944 1.6902 64.5025 1.72345 64.569 1.72345C64.6355 1.72345 64.7352 1.74007 64.8682 1.77332C65.0012 1.78994 65.209 1.85643 65.4916 1.9728C65.7908 2.08916 66.2396 2.28864 66.8381 2.57124C66.9046 2.60449 67.0126 2.63774 67.1622 2.67099C67.3285 2.70423 67.4947 2.73748 67.6609 2.77073C67.8272 2.80397 67.9685 2.85384 68.0848 2.92034C68.2178 2.97021 68.3009 3.0367 68.3342 3.11982ZM70.3477 26.0789C70.3477 26.1662 70.3456 26.241 70.3415 26.3034C70.3373 26.3657 70.3311 26.4239 70.3228 26.4779C70.3186 26.5319 70.3103 26.586 70.2978 26.64C70.2854 26.694 70.2708 26.7543 70.2542 26.8208C70.221 26.9662 70.1919 27.1117 70.1669 27.2571C70.142 27.3984 70.1108 27.548 70.0734 27.706C70.0693 27.7226 70.0568 27.7475 70.036 27.7808C70.0194 27.814 70.0007 27.8514 69.9799 27.893C69.9591 27.9345 69.9384 27.9761 69.9176 28.0176C69.901 28.0592 69.8885 28.0945 69.8802 28.1236C69.8594 28.2067 69.8262 28.2753 69.7804 28.3293C69.7389 28.3834 69.6952 28.454 69.6495 28.5413C69.6288 28.587 69.6142 28.639 69.6059 28.6971C69.5976 28.7512 69.581 28.7927 69.556 28.8218C69.5477 28.8343 69.5249 28.8551 69.4875 28.8841C69.4542 28.9132 69.4147 28.9465 69.369 28.9839C69.3274 29.0213 69.2838 29.0587 69.2381 29.0961C69.1965 29.1335 69.1633 29.1667 69.1384 29.1958C69.1217 29.2166 69.1051 29.2416 69.0885 29.2706C69.076 29.2997 69.0615 29.3226 69.0449 29.3392C69.0241 29.3517 68.9991 29.3579 68.97 29.3579C68.9451 29.3579 68.9223 29.3662 68.9015 29.3829C68.8932 29.3953 68.8848 29.4161 68.8765 29.4452C68.8724 29.4701 68.862 29.4826 68.8454 29.4826C68.8371 29.4826 68.8246 29.4826 68.808 29.4826C68.7955 29.4784 68.7851 29.4764 68.7768 29.4764C68.7602 29.4764 68.7228 29.4992 68.6646 29.5449C68.6064 29.5865 68.542 29.6343 68.4713 29.6883C68.4048 29.7423 68.3404 29.7943 68.2781 29.8442C68.2199 29.894 68.1804 29.9252 68.1596 29.9377C68.1306 29.9584 68.0994 29.9751 68.0661 29.9875C68.0371 30 68.008 30.0166 67.9789 30.0374C67.9415 30.054 67.9124 30.0727 67.8916 30.0935C67.8708 30.1184 67.85 30.1392 67.8293 30.1558C67.8085 30.1766 67.7856 30.1932 67.7607 30.2057C67.7358 30.2182 67.7004 30.2244 67.6547 30.2244C67.6422 30.2244 67.6173 30.2161 67.5799 30.1995C67.5425 30.1829 67.5051 30.16 67.4677 30.1309C67.4303 30.106 67.395 30.0748 67.3617 30.0374C67.3326 30 67.3181 29.9605 67.3181 29.919C67.3181 29.9065 67.3202 29.894 67.3243 29.8816C67.3285 29.8649 67.3306 29.8483 67.3306 29.8317C67.3306 29.8192 67.3285 29.8088 67.3243 29.8005C67.2744 29.6966 67.2183 29.599 67.156 29.5075C67.0978 29.4119 67.0687 29.2997 67.0687 29.1709C67.0687 29.1252 67.075 29.0795 67.0874 29.0338C67.0999 28.9839 67.1061 28.9174 67.1061 28.8343C67.1061 28.7304 67.0999 28.6119 67.0874 28.479C67.075 28.3418 67.0687 28.2067 67.0687 28.0738C67.0687 27.9491 67.0874 27.8099 67.1248 27.6561C67.1622 27.5023 67.2121 27.3486 67.2744 27.1948C67.3368 27.0369 67.4074 26.8852 67.4864 26.7397C67.5695 26.5943 67.6547 26.4675 67.742 26.3595C67.8043 26.2805 67.8708 26.2057 67.9415 26.135C68.0121 26.0644 68.0848 25.9917 68.1596 25.9169C68.2386 25.842 68.3176 25.7652 68.3965 25.6862C68.4755 25.6072 68.5524 25.52 68.6272 25.4244C68.6729 25.3662 68.7332 25.3059 68.808 25.2436C68.8869 25.1813 68.9659 25.1169 69.0449 25.0504C69.0656 25.0379 69.0885 25.0317 69.1134 25.0317C69.1384 25.0317 69.1612 25.0233 69.182 25.0067C69.2236 24.9776 69.2589 24.9465 69.288 24.9132C69.3171 24.88 69.342 24.8488 69.3628 24.8197C69.3836 24.7906 69.4043 24.7678 69.4251 24.7511C69.4459 24.7304 69.4687 24.72 69.4937 24.72C69.5145 24.72 69.5332 24.722 69.5498 24.7262C69.5706 24.7304 69.5913 24.7324 69.6121 24.7324C69.6371 24.7324 69.6558 24.7262 69.6682 24.7137C69.6807 24.6971 69.6932 24.6805 69.7056 24.6639C69.7181 24.6431 69.7326 24.6265 69.7493 24.614C69.77 24.5974 69.7991 24.5891 69.8365 24.5891C69.9155 24.6015 69.9716 24.6223 70.0049 24.6514C70.0423 24.6763 70.0672 24.7096 70.0797 24.7511C70.0921 24.7927 70.1025 24.8426 70.1108 24.9007C70.1191 24.9589 70.1358 25.0254 70.1607 25.1002L70.2542 25.4244C70.2708 25.4826 70.2895 25.5387 70.3103 25.5927C70.3311 25.6467 70.3436 25.6966 70.3477 25.7423C70.3477 25.7797 70.3394 25.8067 70.3228 25.8233C70.3062 25.8358 70.2978 25.8587 70.2978 25.8919C70.2978 25.9127 70.3062 25.9397 70.3228 25.973C70.3394 26.0021 70.3477 26.0374 70.3477 26.0789ZM69.4189 26.9641C69.4189 26.8976 69.4126 26.8249 69.4002 26.746C69.3919 26.667 69.3836 26.5839 69.3752 26.4966C69.3669 26.3885 69.3607 26.2743 69.3565 26.1537C69.3565 26.0332 69.3524 25.921 69.3441 25.8171C69.3358 25.7132 69.3233 25.628 69.3067 25.5615C69.2942 25.495 69.2713 25.4618 69.2381 25.4618C69.1924 25.4618 69.1217 25.4867 69.0261 25.5366C68.9347 25.5865 68.8474 25.6426 68.7643 25.7049C68.7435 25.7257 68.7228 25.761 68.702 25.8109C68.6812 25.8566 68.6563 25.9002 68.6272 25.9418C68.5233 26.0831 68.436 26.214 68.3654 26.3345C68.2989 26.455 68.2428 26.5776 68.1971 26.7023C68.1513 26.827 68.1119 26.96 68.0786 27.1013C68.0454 27.2384 68.0121 27.3943 67.9789 27.5688C67.9539 27.7018 67.929 27.8161 67.9041 27.9117C67.8791 28.0073 67.8667 28.1174 67.8667 28.2421C67.8667 28.6078 67.9041 28.8904 67.9789 29.0899C68.0578 29.2893 68.1513 29.3891 68.2594 29.3891C68.3259 29.3891 68.3737 29.3704 68.4028 29.333C68.436 29.2914 68.463 29.2603 68.4838 29.2395C68.5046 29.227 68.5274 29.2208 68.5524 29.2208C68.5815 29.2208 68.6064 29.2125 68.6272 29.1958C68.7145 29.1169 68.781 29.0234 68.8267 28.9153C68.8724 28.8073 68.9139 28.6992 68.9513 28.5912H68.9887C69.0012 28.5912 69.0074 28.587 69.0074 28.5787C69.0074 28.5704 69.0054 28.56 69.0012 28.5475C69.0012 28.5309 69.0012 28.5184 69.0012 28.5101C69.0012 28.481 69.0074 28.4499 69.0199 28.4166C69.0365 28.3834 69.0552 28.3522 69.076 28.3231C69.0968 28.294 69.1176 28.267 69.1384 28.2421C69.1591 28.213 69.1737 28.1901 69.182 28.1735C69.2194 28.1028 69.2443 28.0384 69.2568 27.9802C69.2734 27.9179 69.2838 27.8576 69.288 27.7995C69.2963 27.7371 69.3004 27.6769 69.3004 27.6187C69.3046 27.5563 69.3129 27.4919 69.3254 27.4254C69.3378 27.3299 69.3545 27.2447 69.3752 27.1699C69.396 27.095 69.4106 27.0265 69.4189 26.9641ZM77.0802 19.2217V19.2155C77.0096 19.3651 76.9514 19.4836 76.9057 19.5708C76.8641 19.6581 76.8246 19.7308 76.7872 19.789C76.7498 19.843 76.7145 19.8908 76.6813 19.9324C76.648 19.974 76.6065 20.0259 76.5566 20.0882C76.5317 20.0966 76.488 20.1298 76.4257 20.188C76.3633 20.2462 76.2968 20.3106 76.2262 20.3812C76.1555 20.4519 76.0891 20.5163 76.0267 20.5745C75.9644 20.6327 75.9207 20.6659 75.8958 20.6742C75.8833 20.7116 75.8563 20.749 75.8148 20.7864C75.7774 20.8238 75.7316 20.8592 75.6776 20.8924C75.6236 20.9257 75.5675 20.961 75.5093 20.9984C75.4511 21.0316 75.3971 21.0649 75.3472 21.0981C75.2641 21.1563 75.1935 21.2062 75.1353 21.2477C75.0813 21.2851 75.0272 21.3205 74.9732 21.3537C74.9192 21.387 74.861 21.4181 74.7987 21.4472C74.7363 21.4722 74.6574 21.4992 74.5618 21.5283C74.3872 21.5823 74.1919 21.628 73.9758 21.6654C73.7597 21.7028 73.5519 21.7215 73.3524 21.7215C73.2236 21.7215 73.0947 21.7153 72.9659 21.7028C72.8371 21.6862 72.7394 21.6612 72.6729 21.628C72.648 21.6529 72.6355 21.6696 72.6355 21.6779C72.6355 21.6945 72.6459 21.709 72.6667 21.7215C72.6875 21.7298 72.7041 21.7444 72.7166 21.7651C72.7332 21.7901 72.7477 21.8212 72.7602 21.8586C72.7727 21.896 72.7893 21.9272 72.8101 21.9522C72.8516 22.0062 72.8994 22.054 72.9534 22.0955C73.0116 22.1371 73.0573 22.1828 73.0906 22.2327C73.1114 22.2576 73.1259 22.295 73.1342 22.3449C73.1467 22.3906 73.1633 22.4301 73.1841 22.4633C73.2049 22.5007 73.2277 22.534 73.2527 22.5631C73.2818 22.588 73.3067 22.6171 73.3275 22.6503C73.4064 22.7916 73.475 22.9225 73.5332 23.0431C73.5914 23.1636 73.662 23.2966 73.7451 23.442C73.7618 23.4753 73.7846 23.5064 73.8137 23.5355C73.8428 23.5646 73.8657 23.5958 73.8823 23.629C73.8948 23.6623 73.901 23.6997 73.901 23.7413C73.9051 23.7828 73.9155 23.8223 73.9322 23.8597C73.982 24.001 74.0361 24.1485 74.0942 24.3023C74.1566 24.4519 74.2106 24.5994 74.2563 24.7449C74.2771 24.8239 74.2916 24.9091 74.2999 25.0005C74.3124 25.0919 74.329 25.1771 74.3498 25.2561C74.3872 25.4057 74.4225 25.5366 74.4558 25.6488C74.489 25.761 74.5057 25.8961 74.5057 26.054C74.5057 26.1246 74.5036 26.1953 74.4994 26.2659C74.4953 26.3366 74.4911 26.4052 74.487 26.4717C74.4787 26.534 74.4579 26.5963 74.4246 26.6587C74.3955 26.721 74.3831 26.7875 74.3872 26.8582C74.3872 26.8914 74.3893 26.9247 74.3935 26.9579C74.3976 26.987 74.3997 27.0161 74.3997 27.0452C74.3997 27.1324 74.3872 27.2218 74.3623 27.3132C74.3374 27.4005 74.3083 27.4919 74.275 27.5875C74.2418 27.6789 74.2064 27.7725 74.169 27.868C74.1316 27.9595 74.0984 28.0509 74.0693 28.1423C74.0527 28.2005 74.0257 28.2649 73.9883 28.3356C73.955 28.4062 73.9197 28.4748 73.8823 28.5413C73.8449 28.6078 73.8116 28.668 73.7825 28.7221C73.7576 28.7761 73.7451 28.8156 73.7451 28.8405C73.7451 28.8613 73.7348 28.8779 73.714 28.8904C73.6973 28.8987 73.6745 28.907 73.6454 28.9153C73.6205 28.9236 73.5935 28.934 73.5644 28.9465C73.5394 28.9548 73.5207 28.9673 73.5083 28.9839C73.4667 29.0421 73.4355 29.1148 73.4147 29.2021C73.3981 29.2852 73.369 29.3662 73.3275 29.4452C73.3233 29.4493 73.3088 29.466 73.2838 29.4951C73.2589 29.52 73.2319 29.5512 73.2028 29.5886C73.1737 29.6218 73.1467 29.6551 73.1218 29.6883C73.101 29.7216 73.0906 29.7486 73.0906 29.7693C73.0906 29.7901 73.0802 29.8068 73.0594 29.8192C73.0386 29.8275 73.0116 29.8379 72.9784 29.8504C72.9493 29.8629 72.914 29.8774 72.8724 29.894C72.835 29.9106 72.7997 29.9335 72.7664 29.9626C72.7498 29.9751 72.7353 29.9938 72.7228 30.0187C72.7103 30.0478 72.6937 30.0748 72.6729 30.0997C72.6563 30.1247 72.6355 30.1475 72.6106 30.1683C72.5857 30.1891 72.5545 30.1995 72.5171 30.1995C72.4963 30.1995 72.4714 30.1974 72.4423 30.1932C72.4173 30.1891 72.3945 30.187 72.3737 30.187C72.3405 30.187 72.3134 30.2036 72.2927 30.2369C72.2719 30.2701 72.2449 30.2868 72.2116 30.2868C72.1742 30.2868 72.1472 30.2805 72.1306 30.2681C72.1181 30.2597 72.1056 30.2473 72.0932 30.2307C72.0849 30.2182 72.0766 30.2036 72.0682 30.187C72.0599 30.1704 72.0433 30.1558 72.0184 30.1434C71.9727 30.1226 71.9186 30.1122 71.8563 30.1122C71.794 30.1122 71.7545 30.1081 71.7379 30.0997C71.7129 30.079 71.6818 30.0291 71.6443 29.9501C71.6111 29.8712 71.5675 29.7964 71.5134 29.7257C71.4802 29.6883 71.449 29.6571 71.4199 29.6322C71.395 29.6073 71.3701 29.5844 71.3451 29.5636C71.3202 29.5387 71.2973 29.5117 71.2766 29.4826C71.2599 29.4493 71.2454 29.4057 71.2329 29.3517C71.2246 29.3184 71.208 29.2956 71.183 29.2831C71.1623 29.2706 71.1477 29.2478 71.1394 29.2145C71.1103 29.1356 71.0916 29.067 71.0833 29.0088C71.075 28.9506 71.0604 28.8779 71.0397 28.7906C71.0397 28.774 71.0334 28.7491 71.021 28.7158C71.0127 28.6784 71.0023 28.641 70.9898 28.6036C70.9815 28.5621 70.9732 28.5226 70.9649 28.4852C70.9566 28.4436 70.9524 28.4104 70.9524 28.3854C70.9524 28.2691 70.9586 28.1527 70.9711 28.0364C70.9877 27.92 70.996 27.8119 70.996 27.7122C70.996 27.6582 70.9981 27.6062 71.0023 27.5563C71.0064 27.5065 71.0189 27.4525 71.0397 27.3943C71.048 27.3818 71.0646 27.3589 71.0895 27.3257C71.1145 27.2924 71.1311 27.2696 71.1394 27.2571C71.1685 27.1532 71.1997 27.0576 71.2329 26.9704C71.2662 26.8789 71.3056 26.7854 71.3514 26.6898C71.3971 26.5901 71.4511 26.48 71.5134 26.3595C71.5758 26.2348 71.6506 26.0852 71.7379 25.9106C71.7462 25.894 71.7524 25.8711 71.7566 25.842C71.7649 25.8088 71.7753 25.7859 71.7877 25.7735C71.7919 25.7693 71.8023 25.7631 71.8189 25.7548C71.8397 25.7465 71.8605 25.7382 71.8812 25.7298C71.9062 25.7174 71.9269 25.707 71.9436 25.6987C71.9643 25.6862 71.9747 25.6737 71.9747 25.6613C71.9747 25.653 71.9727 25.6426 71.9685 25.6301C71.9685 25.6176 71.9685 25.6072 71.9685 25.5989C71.9685 25.5989 71.9872 25.5782 72.0246 25.5366C72.062 25.495 72.1056 25.4472 72.1555 25.3932C72.2054 25.335 72.2553 25.2789 72.3051 25.2249C72.3592 25.1709 72.4028 25.1356 72.436 25.1189C72.4693 25.1023 72.5025 25.0961 72.5358 25.1002C72.569 25.1002 72.6002 25.0919 72.6293 25.0753C72.6667 25.0462 72.6999 25.0046 72.729 24.9506C72.7581 24.8966 72.7851 24.8592 72.8101 24.8384C72.8475 24.8052 72.8932 24.7698 72.9472 24.7324C73.0012 24.695 73.0511 24.6576 73.0968 24.6202C73.1467 24.5828 73.1883 24.5496 73.2215 24.5205C73.2589 24.4872 73.2776 24.4602 73.2776 24.4394C73.2776 24.3854 73.2589 24.321 73.2215 24.2462C73.1841 24.1714 73.1405 24.0987 73.0906 24.028C73.0449 23.9574 73.0033 23.895 72.9659 23.841C72.9285 23.7828 72.9098 23.7433 72.9098 23.7226C72.9057 23.6935 72.8911 23.6623 72.8662 23.629C72.8412 23.5958 72.8142 23.5626 72.7851 23.5293C72.756 23.4919 72.729 23.4587 72.7041 23.4296C72.6833 23.4005 72.6729 23.3735 72.6729 23.3485C72.6729 23.3236 72.6605 23.2945 72.6355 23.2613C72.6106 23.2239 72.5836 23.1864 72.5545 23.149C72.5254 23.1116 72.4984 23.0763 72.4734 23.0431C72.4485 23.0098 72.436 22.9828 72.436 22.962C72.436 22.8789 72.3882 22.7833 72.2927 22.6753C72.2012 22.5631 72.0953 22.4322 71.9747 22.2825C71.9706 22.2784 71.9685 22.2722 71.9685 22.2638C71.9685 22.2555 71.9685 22.2451 71.9685 22.2327C71.9727 22.2202 71.9747 22.2098 71.9747 22.2015C71.9747 22.1807 71.9498 22.1475 71.8999 22.1018C71.8542 22.0561 71.8023 22.0062 71.7441 21.9522C71.6859 21.8981 71.6319 21.8462 71.582 21.7963C71.5363 21.7423 71.5134 21.7007 71.5134 21.6716C71.5093 21.6342 71.474 21.5885 71.4075 21.5345C71.3451 21.4805 71.2766 21.4244 71.2017 21.3662C71.1269 21.3038 71.0584 21.2436 70.996 21.1854C70.9337 21.1231 70.9025 21.069 70.9025 21.0233C70.915 20.9444 70.9378 20.8986 70.9711 20.8862C71.0085 20.8737 71.0646 20.8571 71.1394 20.8363C71.1643 20.8321 71.1976 20.8197 71.2392 20.7989C71.2807 20.7781 71.3243 20.7573 71.3701 20.7366C71.4158 20.7116 71.4636 20.6908 71.5134 20.6742C71.5633 20.6576 71.609 20.6493 71.6506 20.6493C71.7212 20.6493 71.7981 20.6638 71.8812 20.6929C71.9685 20.7179 72.0454 20.749 72.1119 20.7864C72.1244 20.7947 72.141 20.8134 72.1618 20.8425C72.1825 20.8675 72.1992 20.882 72.2116 20.8862C72.2698 20.907 72.3363 20.9153 72.4111 20.9111C72.4859 20.9028 72.5586 20.909 72.6293 20.9298C72.6584 20.9381 72.6833 20.9568 72.7041 20.9859C72.7249 21.015 72.7519 21.0296 72.7851 21.0296C72.7934 21.0296 72.8018 21.0296 72.8101 21.0296C72.8225 21.0254 72.8329 21.0233 72.8412 21.0233C72.8579 21.0233 72.8973 21.0296 72.9597 21.042C73.022 21.0503 73.0947 21.0607 73.1779 21.0732C73.2651 21.0857 73.3545 21.0981 73.4459 21.1106C73.5415 21.1189 73.6267 21.1231 73.7015 21.1231C73.8054 21.1231 73.928 21.1127 74.0693 21.0919C74.2106 21.0711 74.3519 21.0441 74.4932 21.0108C74.6345 20.9734 74.7654 20.9298 74.8859 20.8799C75.0106 20.8301 75.1062 20.776 75.1727 20.7179C75.2059 20.6888 75.235 20.6555 75.26 20.6181C75.2849 20.5807 75.3161 20.5454 75.3535 20.5121C75.4116 20.4581 75.474 20.4145 75.5405 20.3812C75.6111 20.3438 75.6818 20.294 75.7524 20.2316C75.8605 20.136 75.9831 20.0238 76.1202 19.895C76.2615 19.762 76.3841 19.6332 76.488 19.5085C76.513 19.4794 76.5462 19.4379 76.5878 19.3838C76.6293 19.3256 76.6709 19.2612 76.7124 19.1906C76.754 19.1158 76.7935 19.0389 76.8309 18.9599C76.8683 18.8768 76.8974 18.7978 76.9181 18.723C76.9265 18.6399 76.9452 18.5755 76.9743 18.5298C77.0075 18.4799 77.0407 18.455 77.074 18.455C77.1405 18.455 77.1737 18.5277 77.1737 18.6732C77.1737 18.6732 77.1696 18.7023 77.1613 18.7604C77.153 18.8145 77.1426 18.8768 77.1301 18.9475C77.1218 19.014 77.1114 19.0763 77.0989 19.1345C77.0906 19.1927 77.0844 19.2217 77.0802 19.2217ZM73.7888 26.1911C73.7888 26.1537 73.7846 26.1267 73.7763 26.1101C73.7722 26.0893 73.7638 26.0706 73.7514 26.054C73.7431 26.0332 73.7327 26.0083 73.7202 25.9792C73.7119 25.9501 73.7036 25.9106 73.6953 25.8608C73.6786 25.7776 73.6724 25.6945 73.6766 25.6114C73.6807 25.5241 73.6724 25.4369 73.6516 25.3496C73.6225 25.2374 73.5893 25.1397 73.5519 25.0566C73.5145 24.9693 73.4916 24.9257 73.4833 24.9257C73.4251 24.9257 73.3794 24.9402 73.3462 24.9693C73.3129 24.9984 73.2901 25.0171 73.2776 25.0254C73.2402 25.0462 73.1945 25.0649 73.1405 25.0815C73.0906 25.0981 73.0428 25.1252 72.9971 25.1626C72.9472 25.2083 72.8828 25.2748 72.8038 25.362C72.7249 25.4452 72.648 25.5324 72.5732 25.6239C72.4984 25.7111 72.434 25.7901 72.3799 25.8608C72.3259 25.9272 72.2968 25.9626 72.2927 25.9667C72.2303 26.1288 72.1867 26.2452 72.1618 26.3158C72.141 26.3865 72.1264 26.4405 72.1181 26.4779C72.1098 26.5153 72.1036 26.5506 72.0994 26.5839C72.0994 26.613 72.089 26.667 72.0682 26.746C72.0599 26.7792 72.0412 26.8124 72.0121 26.8457C71.9831 26.8748 71.9685 26.9122 71.9685 26.9579C71.9685 26.987 71.9706 27.014 71.9747 27.0389C71.9789 27.0639 71.981 27.0888 71.981 27.1137C71.981 27.1553 71.9727 27.1948 71.956 27.2322C71.9436 27.2654 71.929 27.2987 71.9124 27.3319C71.8958 27.3652 71.8792 27.3984 71.8625 27.4317C71.8501 27.4649 71.8438 27.5002 71.8438 27.5376C71.8438 27.5958 71.848 27.6706 71.8563 27.7621C71.8688 27.8535 71.8812 27.9491 71.8937 28.0488C71.9062 28.1444 71.9186 28.2358 71.9311 28.3231C71.9477 28.4104 71.9623 28.4748 71.9747 28.5164C71.9747 28.5288 71.9727 28.5413 71.9685 28.5538C71.9685 28.5621 71.9685 28.5725 71.9685 28.5849C71.9685 28.6015 71.981 28.6265 72.0059 28.6597C72.035 28.6888 72.0558 28.7179 72.0682 28.747C72.1056 28.8551 72.1514 28.9548 72.2054 29.0462C72.2594 29.1335 72.3134 29.2104 72.3675 29.2769C72.4257 29.3434 72.4818 29.3953 72.5358 29.4327C72.5898 29.4701 72.6355 29.4888 72.6729 29.4888C72.702 29.4888 72.7415 29.4618 72.7914 29.4078C72.8454 29.3496 72.9015 29.281 72.9597 29.2021C73.022 29.119 73.0802 29.0338 73.1342 28.9465C73.1924 28.8551 73.2402 28.774 73.2776 28.7034C73.3358 28.5995 73.394 28.481 73.4522 28.348C73.5103 28.2151 73.5457 28.0841 73.5581 27.9553C73.5581 27.9304 73.5644 27.9117 73.5768 27.8992C73.5893 27.8867 73.5997 27.8763 73.608 27.868C73.6288 27.7849 73.6392 27.7122 73.6392 27.6499C73.6392 27.5834 73.6433 27.5148 73.6516 27.4441C73.6558 27.3527 73.6662 27.253 73.6828 27.1449C73.6994 27.0327 73.714 26.9205 73.7264 26.8083C73.7431 26.6961 73.7576 26.588 73.7701 26.4841C73.7825 26.3761 73.7888 26.2784 73.7888 26.1911ZM77.3483 28.454C77.3649 28.4914 77.3732 28.5309 77.3732 28.5725C77.3732 28.614 77.3628 28.6514 77.342 28.6847C77.3254 28.7138 77.3026 28.7428 77.2735 28.7719C77.2485 28.7969 77.2195 28.8218 77.1862 28.8467C77.1571 28.8675 77.1322 28.8904 77.1114 28.9153C77.1031 28.9319 77.0969 28.9569 77.0927 28.9901C77.0927 29.0192 77.0844 29.0421 77.0678 29.0587C77.0179 29.1127 76.9556 29.1584 76.8807 29.1958C76.8101 29.2332 76.7478 29.281 76.6937 29.3392C76.6605 29.3766 76.6356 29.414 76.6189 29.4514C76.6023 29.4847 76.5649 29.5242 76.5067 29.5699C76.461 29.6031 76.4174 29.6488 76.3758 29.707C76.3343 29.7652 76.2885 29.8234 76.2387 29.8816C76.1888 29.9356 76.1306 29.9834 76.0641 30.0249C75.9976 30.0706 75.9187 30.0935 75.8272 30.0935C75.8065 30.0935 75.7878 30.0914 75.7711 30.0873C75.7545 30.0873 75.7358 30.0852 75.715 30.081C75.715 30.081 75.7005 30.0727 75.6714 30.0561C75.6423 30.0395 75.6091 30.0062 75.5716 29.9564C75.5384 29.9065 75.5072 29.8358 75.4781 29.7444C75.449 29.653 75.4345 29.5325 75.4345 29.3829C75.4345 29.3455 75.4407 29.306 75.4532 29.2644C75.4698 29.2187 75.4865 29.1751 75.5031 29.1335C75.5239 29.0919 75.5405 29.0504 75.5529 29.0088C75.5696 28.9631 75.5779 28.9216 75.5779 28.8841C75.5779 28.8467 75.5696 28.8114 75.5529 28.7782C75.5363 28.7449 75.528 28.7096 75.528 28.6722C75.528 28.6348 75.5446 28.6099 75.5779 28.5974C75.6111 28.5808 75.6278 28.5517 75.6278 28.5101C75.6278 28.4893 75.6257 28.4706 75.6215 28.454C75.6215 28.4374 75.6215 28.4187 75.6215 28.3979C75.6215 28.348 75.6298 28.3148 75.6465 28.2982C75.6631 28.2774 75.6714 28.2504 75.6714 28.2171C75.6714 28.188 75.6652 28.1673 75.6527 28.1548C75.6444 28.1382 75.6402 28.1174 75.6402 28.0925C75.6402 28.0634 75.6506 28.0364 75.6714 28.0114C75.6922 27.9823 75.7067 27.9428 75.715 27.893C75.7441 27.7974 75.767 27.6852 75.7836 27.5563C75.8002 27.4234 75.8189 27.2821 75.8397 27.1324C75.8646 26.9787 75.8917 26.8166 75.9207 26.6462C75.9498 26.4717 75.9914 26.2971 76.0454 26.1226C76.062 26.0644 76.0787 25.9813 76.0953 25.8732C76.1161 25.761 76.1285 25.6446 76.1327 25.5241C76.1119 25.5117 76.0974 25.5054 76.0891 25.5054C76.0558 25.5054 76.0309 25.5324 76.0142 25.5865C76.0018 25.6405 75.981 25.68 75.9519 25.7049C75.9311 25.7215 75.9062 25.7298 75.8771 25.7298C75.8522 25.7298 75.8293 25.7361 75.8085 25.7485C75.7836 25.7693 75.7628 25.7943 75.7462 25.8233C75.7337 25.8483 75.7192 25.8732 75.7026 25.8982C75.6901 25.9231 75.6714 25.948 75.6465 25.973C75.6215 25.9979 75.5841 26.0166 75.5342 26.0291C75.5259 26.0332 75.5218 26.0436 75.5218 26.0602C75.5218 26.0727 75.5135 26.0789 75.4968 26.0789H75.4844C75.4844 26.0665 75.474 26.0561 75.4532 26.0478C75.4366 26.0353 75.4158 26.0228 75.3909 26.0104C75.3659 25.9979 75.3431 25.9833 75.3223 25.9667C75.3057 25.9501 75.2974 25.9293 75.2974 25.9044C75.2974 25.867 75.3057 25.8379 75.3223 25.8171C75.3389 25.7963 75.3618 25.7797 75.3909 25.7672C75.42 25.7548 75.449 25.7423 75.4781 25.7298C75.5114 25.7132 75.5446 25.6904 75.5779 25.6613C75.6194 25.6197 75.6652 25.5719 75.715 25.5179C75.7691 25.4639 75.8231 25.4098 75.8771 25.3558C75.9311 25.2976 75.9872 25.2436 76.0454 25.1937C76.1078 25.1397 76.1701 25.0919 76.2324 25.0504C76.2449 25.042 76.247 25.0337 76.2387 25.0254C76.2345 25.0171 76.247 25.0109 76.2761 25.0067C76.2885 25.0067 76.3052 25.0005 76.3259 24.988C76.3509 24.9714 76.3737 24.9548 76.3945 24.9381C76.4194 24.9174 76.4402 24.9007 76.4568 24.8883C76.4735 24.8717 76.4839 24.8633 76.488 24.8633C76.4963 24.8633 76.5046 24.8654 76.513 24.8696C76.5254 24.8696 76.5358 24.8696 76.5441 24.8696C76.5774 24.8696 76.6148 24.8613 76.6563 24.8446C76.702 24.8239 76.7831 24.8135 76.8994 24.8135C76.9452 24.8135 76.9846 24.828 77.0179 24.8571C77.0553 24.882 77.074 24.9361 77.074 25.0192C77.074 25.0441 77.0636 25.0836 77.0428 25.1376C77.022 25.1917 76.9992 25.2561 76.9743 25.3309C76.9493 25.4057 76.9265 25.4888 76.9057 25.5802C76.8849 25.6717 76.8745 25.7672 76.8745 25.867C76.8745 25.9085 76.8766 25.9522 76.8807 25.9979C76.8849 26.0395 76.887 26.081 76.887 26.1226C76.887 26.1974 76.8724 26.2618 76.8433 26.3158C76.8184 26.3657 76.7997 26.426 76.7872 26.4966C76.7706 26.5839 76.7623 26.6753 76.7623 26.7709C76.7623 26.8665 76.7561 26.9621 76.7436 27.0576C76.7104 27.2571 76.6709 27.4504 76.6252 27.6374C76.5794 27.8244 76.54 28.0176 76.5067 28.2171C76.4943 28.2836 76.4735 28.3688 76.4444 28.4727C76.4194 28.5766 76.407 28.6867 76.407 28.8031C76.407 28.9112 76.4257 29.0109 76.4631 29.1023C76.5254 29.0982 76.5774 29.0795 76.6189 29.0462C76.6605 29.013 76.6979 28.9756 76.7311 28.934C76.7644 28.8925 76.7956 28.8488 76.8246 28.8031C76.8579 28.7574 76.8932 28.7179 76.9306 28.6847C76.9556 28.6639 76.9909 28.6493 77.0366 28.641C77.0865 28.6286 77.128 28.6119 77.1613 28.5912C77.1945 28.5704 77.2174 28.5413 77.2298 28.5039C77.2423 28.4665 77.2693 28.4478 77.3109 28.4478C77.3192 28.4478 77.3254 28.4499 77.3296 28.454C77.3337 28.454 77.34 28.454 77.3483 28.454ZM77.5789 22.1703C77.5914 22.1953 77.5976 22.2223 77.5976 22.2514C77.5976 22.3012 77.581 22.3553 77.5478 22.4135C77.5145 22.4716 77.4771 22.5277 77.4356 22.5818C77.3982 22.6358 77.3608 22.6857 77.3233 22.7314C77.2859 22.7729 77.2631 22.802 77.2548 22.8187C77.2298 22.8727 77.2091 22.9454 77.1924 23.0368C77.18 23.1283 77.153 23.2114 77.1114 23.2862C77.0948 23.3194 77.0802 23.3444 77.0678 23.361C77.0553 23.3776 77.0407 23.415 77.0241 23.4732C77.0075 23.5106 76.9867 23.5542 76.9618 23.6041C76.9369 23.654 76.9098 23.7018 76.8807 23.7475C76.8517 23.789 76.8226 23.8265 76.7935 23.8597C76.7644 23.8888 76.7374 23.9033 76.7124 23.9033C76.6044 23.9033 76.5296 23.8514 76.488 23.7475C76.4506 23.6394 76.4319 23.5127 76.4319 23.3672C76.4319 23.309 76.434 23.2488 76.4381 23.1864C76.4465 23.1241 76.4548 23.0638 76.4631 23.0057C76.4714 22.9433 76.4922 22.8976 76.5254 22.8685C76.5587 22.8394 76.5857 22.7937 76.6065 22.7314C76.6272 22.6774 76.6418 22.6254 76.6501 22.5755C76.6584 22.5215 76.6667 22.4716 76.675 22.4259C76.6875 22.3802 76.7 22.3407 76.7124 22.3075C76.7291 22.2701 76.754 22.2389 76.7872 22.214C76.8122 22.1974 76.8413 22.1828 76.8745 22.1703C76.9119 22.1579 76.9493 22.1496 76.9867 22.1454C77.0283 22.1371 77.0678 22.1309 77.1052 22.1267C77.1467 22.1225 77.18 22.1205 77.2049 22.1205C77.2049 22.1246 77.2236 22.1184 77.261 22.1018C77.2984 22.081 77.34 22.0706 77.3857 22.0706C77.394 22.0706 77.421 22.0789 77.4667 22.0955C77.5166 22.108 77.554 22.1329 77.5789 22.1703ZM82.7218 28.5849C82.7218 28.6514 82.7031 28.7117 82.6657 28.7657C82.6283 28.8156 82.5805 28.8654 82.5223 28.9153C82.4642 28.9652 82.3997 29.0151 82.3291 29.0649C82.2584 29.1148 82.1899 29.1709 82.1234 29.2332C82.1026 29.2499 82.086 29.2748 82.0735 29.308C82.061 29.3371 82.0444 29.3579 82.0236 29.3704C82.0029 29.3912 81.98 29.3995 81.9551 29.3953C81.9301 29.3912 81.9073 29.3995 81.8865 29.4203C81.8574 29.4493 81.8283 29.4909 81.7992 29.5449C81.7743 29.5948 81.741 29.6468 81.6995 29.7008C81.687 29.7216 81.6538 29.7631 81.5997 29.8255C81.5499 29.8878 81.4896 29.9522 81.419 30.0187C81.3525 30.0852 81.2818 30.1455 81.207 30.1995C81.1364 30.2535 81.0719 30.2805 81.0138 30.2805C80.9805 30.2805 80.9556 30.2722 80.939 30.2556C80.9223 30.239 80.914 30.2203 80.914 30.1995C80.914 30.1745 80.9203 30.1455 80.9327 30.1122C80.9452 30.079 80.9514 30.0353 80.9514 29.9813C80.9514 29.8899 80.9369 29.813 80.9078 29.7506C80.8787 29.6883 80.8641 29.6405 80.8641 29.6073C80.8683 29.52 80.8912 29.4244 80.9327 29.3205C80.9784 29.2166 81.0013 29.1106 81.0013 29.0026C81.0013 28.9444 80.993 28.8904 80.9764 28.8405C80.9597 28.7865 80.9514 28.7304 80.9514 28.6722C80.9514 28.614 80.966 28.5538 80.9951 28.4914C81.0242 28.4249 81.0429 28.3626 81.0512 28.3044C81.0595 28.2379 81.0657 28.1714 81.0699 28.1049C81.074 28.0384 81.0761 27.9719 81.0761 27.9054V27.7309C81.0761 27.6395 81.0823 27.5563 81.0948 27.4815C81.1073 27.4067 81.1197 27.3361 81.1322 27.2696C81.1488 27.2031 81.1655 27.1366 81.1821 27.0701C81.2029 27.0036 81.2195 26.933 81.2319 26.8582C81.2486 26.7584 81.259 26.6587 81.2631 26.5589C81.2673 26.4592 81.2693 26.3595 81.2693 26.2597C81.2735 26.16 81.2777 26.0644 81.2818 25.973C81.2901 25.8774 81.3047 25.7859 81.3255 25.6987C81.313 25.6945 81.2943 25.6924 81.2693 25.6924C81.2153 25.6924 81.1696 25.7091 81.1322 25.7423C81.0948 25.7714 81.0616 25.8067 81.0325 25.8483C81.0075 25.8857 80.9847 25.9272 80.9639 25.973C80.9473 26.0145 80.9286 26.0478 80.9078 26.0727C80.8912 26.0935 80.8683 26.108 80.8392 26.1163C80.8101 26.1246 80.7873 26.1392 80.7706 26.16C80.7499 26.1849 80.7332 26.2161 80.7208 26.2535C80.7083 26.2909 80.6938 26.3221 80.6771 26.347C80.6688 26.3636 80.6501 26.374 80.621 26.3782C80.5961 26.3782 80.5836 26.3885 80.5836 26.4093C80.5836 26.4176 80.5836 26.428 80.5836 26.4405C80.5878 26.453 80.5899 26.4634 80.5899 26.4717C80.5899 26.4883 80.5774 26.5091 80.5525 26.534C80.5275 26.5548 80.4984 26.5776 80.4652 26.6026C80.4361 26.6275 80.4091 26.6524 80.3841 26.6774C80.3592 26.7023 80.3467 26.7231 80.3467 26.7397C80.3467 26.748 80.3467 26.7584 80.3467 26.7709C80.3509 26.7834 80.353 26.7937 80.353 26.8021C80.353 26.8104 80.3384 26.8353 80.3093 26.8769C80.2802 26.9184 80.2449 26.9641 80.2034 27.014C80.1618 27.0639 80.1202 27.1137 80.0787 27.1636C80.0371 27.2135 80.0039 27.2509 79.9789 27.2758C79.9041 27.3506 79.8501 27.4213 79.8169 27.4878C79.7836 27.5543 79.7587 27.6187 79.7421 27.681C79.7296 27.7392 79.7171 27.7974 79.7047 27.8556C79.6963 27.9138 79.6797 27.9699 79.6548 28.0239C79.6465 28.0322 79.6299 28.0405 79.6049 28.0488C79.58 28.053 79.5634 28.0592 79.555 28.0675C79.5343 28.1132 79.5156 28.1631 79.4989 28.2171C79.4823 28.2712 79.4553 28.3293 79.4179 28.3917C79.4096 28.4041 79.393 28.4208 79.368 28.4415C79.3431 28.4623 79.3306 28.479 79.3306 28.4914C79.3099 28.5371 79.2932 28.5912 79.2808 28.6535C79.2683 28.7158 79.2579 28.7803 79.2496 28.8467C79.2413 28.9132 79.235 28.9797 79.2309 29.0462C79.2267 29.1086 79.2247 29.1626 79.2247 29.2083C79.2247 29.254 79.235 29.2893 79.2558 29.3143C79.2766 29.3392 79.287 29.3766 79.287 29.4265C79.287 29.4556 79.2766 29.4784 79.2558 29.4951C79.2392 29.5117 79.2163 29.5283 79.1873 29.5449C79.1623 29.5574 79.1312 29.5719 79.0937 29.5886C79.0605 29.6052 79.0293 29.626 79.0002 29.6509C78.9047 29.734 78.8236 29.8088 78.7571 29.8753C78.6906 29.9377 78.6304 29.9958 78.5763 30.0499C78.5223 30.1081 78.4745 30.16 78.433 30.2057C78.3914 30.2556 78.3478 30.3034 78.3021 30.3491C78.273 30.3449 78.2584 30.3304 78.2584 30.3055C78.2584 30.2597 78.2813 30.214 78.327 30.1683C78.3727 30.1226 78.3956 30.081 78.3956 30.0436C78.3956 30.0145 78.3872 29.9917 78.3706 29.9751C78.3582 29.9543 78.3519 29.9252 78.3519 29.8878C78.3519 29.8753 78.354 29.8504 78.3582 29.813C78.3665 29.7714 78.3748 29.7257 78.3831 29.6758C78.3914 29.6218 78.3997 29.5678 78.408 29.5138C78.4205 29.4597 78.4309 29.4119 78.4392 29.3704C78.4558 29.2997 78.4766 29.2291 78.5015 29.1584C78.5306 29.0836 78.5576 29.0088 78.5826 28.934C78.6117 28.8551 78.6345 28.7761 78.6511 28.6971C78.6719 28.6182 78.6823 28.5371 78.6823 28.454C78.6823 28.4166 78.6802 28.3854 78.6761 28.3605C78.6719 28.3314 78.6698 28.3044 78.6698 28.2795C78.6698 28.2421 78.674 28.1901 78.6823 28.1236C78.6906 28.053 78.6989 27.9761 78.7073 27.893C78.7197 27.8099 78.7301 27.7267 78.7384 27.6436C78.7509 27.5605 78.7613 27.4857 78.7696 27.4192C78.7821 27.2737 78.7883 27.1262 78.7883 26.9766C78.7883 26.827 78.7966 26.6795 78.8132 26.534C78.8299 26.401 78.8527 26.268 78.8818 26.135C78.915 26.0021 78.9317 25.8691 78.9317 25.7361C78.9317 25.653 78.9234 25.5782 78.9067 25.5117C78.8569 25.52 78.807 25.5511 78.7571 25.6052C78.7073 25.6592 78.6595 25.7174 78.6137 25.7797C78.5722 25.842 78.5348 25.8982 78.5015 25.948C78.4683 25.9979 78.4434 26.0228 78.4267 26.0228C78.4184 26.0228 78.408 26.0228 78.3956 26.0228C78.3831 26.0187 78.3727 26.0166 78.3644 26.0166C78.3436 26.0166 78.327 26.0395 78.3145 26.0852C78.3021 26.1309 78.2854 26.1808 78.2647 26.2348C78.2439 26.2847 78.2148 26.3324 78.1774 26.3782C78.1441 26.4239 78.0963 26.4467 78.034 26.4467C78.0174 26.4467 77.9862 26.4405 77.9405 26.428C77.8948 26.4156 77.8719 26.3865 77.8719 26.3408C77.8719 26.3117 77.8802 26.2847 77.8969 26.2597C77.9176 26.2348 77.9405 26.2119 77.9654 26.1911C77.9945 26.1704 78.0215 26.1517 78.0465 26.135C78.0756 26.1143 78.0984 26.0935 78.115 26.0727C78.1275 26.0519 78.1337 26.0291 78.1337 26.0041C78.1379 25.975 78.1462 25.9501 78.1587 25.9293C78.2584 25.8046 78.3769 25.682 78.514 25.5615C78.6553 25.441 78.7862 25.3143 78.9067 25.1813C78.9234 25.1646 78.9296 25.1418 78.9254 25.1127C78.9254 25.0836 78.9358 25.0607 78.9566 25.0441C78.9732 25.0275 78.9961 25.0213 79.0252 25.0254C79.0543 25.0254 79.0771 25.0171 79.0937 25.0005C79.1062 24.988 79.1166 24.9652 79.1249 24.9319C79.1374 24.8987 79.154 24.8654 79.1748 24.8322C79.1997 24.7948 79.2288 24.7636 79.2621 24.7387C79.2995 24.7137 79.3493 24.7013 79.4117 24.7013C79.4449 24.7013 79.4802 24.7075 79.5176 24.72C79.5592 24.7283 79.5966 24.7428 79.6299 24.7636C79.6673 24.7802 79.6963 24.801 79.7171 24.8259C79.7421 24.8467 79.7545 24.8696 79.7545 24.8945C79.7545 24.9361 79.7441 24.9901 79.7234 25.0566C79.7067 25.1231 79.6984 25.1958 79.6984 25.2748C79.6984 25.3246 79.7067 25.3724 79.7234 25.4182C79.74 25.4597 79.7483 25.4909 79.7483 25.5117C79.74 25.5657 79.7213 25.6197 79.6922 25.6737C79.6631 25.7236 79.6486 25.7901 79.6486 25.8732C79.6486 25.9106 79.6486 25.9522 79.6486 25.9979C79.6527 26.0436 79.6548 26.0893 79.6548 26.135C79.6548 26.2098 79.6444 26.295 79.6236 26.3906C79.6028 26.4821 79.58 26.5714 79.555 26.6587C79.5343 26.746 79.5135 26.827 79.4927 26.9018C79.4719 26.9724 79.4615 27.0265 79.4615 27.0639C79.4615 27.0971 79.4761 27.1137 79.5052 27.1137C79.5467 27.1137 79.6008 27.0847 79.6673 27.0265C79.7338 26.9683 79.7899 26.9122 79.8356 26.8582C79.8522 26.8415 79.8605 26.8187 79.8605 26.7896C79.8647 26.7605 79.873 26.7376 79.8854 26.721C79.8938 26.7085 79.9125 26.6919 79.9415 26.6711C79.9748 26.6462 80.008 26.6213 80.0413 26.5963C80.0745 26.5714 80.1036 26.5485 80.1286 26.5278C80.1535 26.5028 80.166 26.4841 80.166 26.4717C80.166 26.4634 80.1639 26.453 80.1597 26.4405C80.1597 26.428 80.1597 26.4176 80.1597 26.4093C80.1597 26.3885 80.1743 26.3595 80.2034 26.3221C80.2325 26.2847 80.2657 26.2452 80.3031 26.2036C80.3405 26.1579 80.3758 26.1143 80.4091 26.0727C80.4465 26.0311 80.4735 25.9979 80.4901 25.973C80.5067 25.948 80.513 25.9189 80.5088 25.8857C80.5088 25.8483 80.5171 25.8171 80.5338 25.7922C80.5836 25.7257 80.6501 25.6509 80.7332 25.5678C80.8205 25.4846 80.8932 25.4202 80.9514 25.3745C80.9847 25.3496 81.0179 25.333 81.0512 25.3246C81.0844 25.3163 81.1156 25.2997 81.1447 25.2748C81.207 25.2166 81.2652 25.1522 81.3192 25.0815C81.3732 25.0109 81.4273 24.9465 81.4813 24.8883C81.5353 24.8259 81.5893 24.774 81.6434 24.7324C81.7016 24.6909 81.766 24.6701 81.8366 24.6701C81.8574 24.6701 81.8886 24.6805 81.9301 24.7013C81.9717 24.722 82.0132 24.7511 82.0548 24.7885C82.0964 24.8259 82.1317 24.8696 82.1608 24.9194C82.194 24.9652 82.2107 25.015 82.2107 25.0691C82.2107 25.1023 82.2044 25.1459 82.192 25.2C82.1795 25.2498 82.1712 25.308 82.167 25.3745C82.1545 25.5241 82.14 25.6633 82.1234 25.7922C82.1109 25.921 82.0943 26.0602 82.0735 26.2098C82.0569 26.3221 82.0465 26.4301 82.0423 26.534C82.0423 26.6337 82.0361 26.7127 82.0236 26.7709C82.0029 26.854 81.9696 26.935 81.9239 27.014C81.8823 27.093 81.8616 27.1865 81.8616 27.2945C81.8616 27.3195 81.8636 27.3465 81.8678 27.3756C81.8719 27.4047 81.8782 27.4358 81.8865 27.4691C81.8907 27.4815 81.8969 27.4919 81.9052 27.5002C81.9177 27.5044 81.9281 27.5127 81.9364 27.5252C81.9488 27.5335 81.9592 27.548 81.9675 27.5688C81.9758 27.5896 81.98 27.6208 81.98 27.6623C81.98 27.7704 81.9571 27.8784 81.9114 27.9865C81.8657 28.0904 81.8429 28.2026 81.8429 28.3231C81.8429 28.3688 81.8491 28.4166 81.8616 28.4665C81.8782 28.5122 81.8865 28.5579 81.8865 28.6036C81.8865 28.6867 81.8678 28.7699 81.8304 28.853C81.7971 28.9319 81.7805 29.0192 81.7805 29.1148C81.7805 29.1356 81.7826 29.1543 81.7868 29.1709C81.7909 29.1875 81.8034 29.1958 81.8242 29.1958C81.9156 29.1958 81.9904 29.1626 82.0486 29.0961C82.1109 29.0296 82.1691 28.9569 82.2231 28.8779C82.2771 28.799 82.3333 28.7262 82.3914 28.6597C82.4538 28.5932 82.5286 28.56 82.6158 28.56C82.6533 28.56 82.6886 28.5683 82.7218 28.5849ZM86.1629 35.1865C86.1587 35.1948 86.1483 35.2115 86.1317 35.2364C86.1151 35.2655 86.0985 35.2925 86.0818 35.3174C86.0652 35.3465 86.0507 35.3715 86.0382 35.3922C86.0257 35.4172 86.0195 35.4296 86.0195 35.4296C86.0195 35.438 86.0195 35.4483 86.0195 35.4608C86.0237 35.4733 86.0257 35.4837 86.0257 35.492C86.0257 35.5128 86.0091 35.5356 85.9759 35.5606C85.9468 35.5855 85.9115 35.6083 85.8699 35.6291C85.8325 35.6541 85.7951 35.6748 85.7577 35.6915C85.7244 35.7122 85.7016 35.7289 85.6891 35.7413C85.6808 35.7663 85.6725 35.7954 85.6642 35.8286C85.6559 35.866 85.6351 35.8993 85.6018 35.9284C85.5728 35.9491 85.5395 35.9574 85.5021 35.9533C85.4689 35.9491 85.4398 35.9574 85.4148 35.9782C85.3774 36.0032 85.3463 36.0322 85.3213 36.0655C85.2964 36.1029 85.2507 36.1341 85.1842 36.159C85.1094 36.1881 85.0366 36.2234 84.966 36.265C84.8953 36.3065 84.8122 36.3502 84.7166 36.3959C84.6792 36.4167 84.6481 36.4291 84.6231 36.4333C84.5982 36.4416 84.5753 36.4458 84.5546 36.4458C84.5338 36.4499 84.5109 36.4541 84.486 36.4582C84.4652 36.4624 84.434 36.4707 84.3925 36.4832C84.3468 36.4998 84.2699 36.5143 84.1618 36.5268C84.0579 36.5393 83.9437 36.5455 83.819 36.5455C83.74 36.5455 83.6652 36.5393 83.5946 36.5268C83.5281 36.5143 83.4595 36.4998 83.3888 36.4832C83.3223 36.4665 83.2517 36.4499 83.1769 36.4333C83.1062 36.4167 83.0294 36.4042 82.9462 36.3959C82.8881 36.3917 82.832 36.3897 82.7779 36.3897C82.7239 36.3938 82.672 36.3938 82.6221 36.3897C82.5722 36.3897 82.5203 36.3834 82.4662 36.371C82.4122 36.3585 82.3561 36.3356 82.2979 36.3024C82.1816 36.2733 82.0673 36.2525 81.9551 36.24C81.8387 36.2276 81.7203 36.2006 81.5997 36.159C81.5914 36.159 81.5852 36.1507 81.581 36.1341C81.5727 36.1216 81.5582 36.1154 81.5374 36.1154C81.5291 36.1154 81.5208 36.1154 81.5125 36.1154C81.5 36.1195 81.4896 36.1216 81.4813 36.1216C81.4481 36.1216 81.421 36.1029 81.4003 36.0655C81.3795 36.0322 81.3462 36.0156 81.3005 36.0156C81.2714 36.0156 81.2444 36.0177 81.2195 36.0219C81.1904 36.026 81.1634 36.0281 81.1384 36.0281C81.0886 36.0281 81.0304 36.0032 80.9639 35.9533C80.8974 35.9034 80.8288 35.8639 80.7582 35.8348C80.6958 35.8099 80.6418 35.7891 80.5961 35.7725C80.5462 35.7559 80.4964 35.7351 80.4465 35.7102C80.3966 35.6894 80.3426 35.6624 80.2844 35.6291C80.2221 35.6 80.1473 35.5606 80.06 35.5107C79.981 35.465 79.9104 35.4213 79.848 35.3798C79.7815 35.3424 79.6984 35.3091 79.5987 35.28C79.5654 35.2676 79.5343 35.2593 79.5052 35.2551C79.4719 35.2551 79.4387 35.2468 79.4054 35.2302C79.368 35.2094 79.3369 35.1782 79.3119 35.1367C79.287 35.0993 79.2579 35.0681 79.2247 35.0432C79.1956 35.0224 79.1623 35.0057 79.1249 34.9933C79.0875 34.985 79.0543 34.9642 79.0252 34.9309C78.9919 34.8977 78.9649 34.8395 78.9441 34.7564C78.9192 34.6774 78.9067 34.5548 78.9067 34.3886C78.9067 34.2847 78.9192 34.1767 78.9441 34.0644C78.9483 34.0644 78.9587 34.0582 78.9753 34.0457C78.9878 34.0333 78.994 34.0167 78.994 33.9959C78.994 33.9876 78.994 33.9772 78.994 33.9647C78.9899 33.9564 78.9878 33.9481 78.9878 33.9398C78.9878 33.9231 79.0065 33.9024 79.0439 33.8774C79.0813 33.8525 79.1104 33.8234 79.1312 33.7902C79.1478 33.7569 79.1561 33.7237 79.1561 33.6904C79.1519 33.6613 79.1602 33.6322 79.181 33.6031C79.235 33.5117 79.3306 33.4078 79.4678 33.2915C79.6049 33.1751 79.7566 33.0296 79.9228 32.8551C80.06 32.7096 80.22 32.5704 80.4028 32.4374C80.5857 32.3044 80.7831 32.1652 80.9951 32.0198C81.0117 32.0073 81.0262 31.9824 81.0387 31.9449C81.0512 31.9117 81.0657 31.8888 81.0823 31.8764C81.128 31.8473 81.1821 31.8265 81.2444 31.814C81.3026 31.8016 81.3587 31.7766 81.4127 31.7392C81.421 31.7309 81.4293 31.7143 81.4377 31.6894C81.4418 31.6644 81.4481 31.6499 81.4564 31.6457C81.4938 31.6291 81.5416 31.6062 81.5997 31.5772C81.6579 31.5481 81.7182 31.5169 81.7805 31.4836C81.8387 31.4546 81.8907 31.4275 81.9364 31.4026C81.9821 31.3818 82.0091 31.3714 82.0174 31.3714C82.059 31.3548 82.0922 31.3465 82.1171 31.3465C82.1421 31.3465 82.1691 31.3382 82.1982 31.3216C82.2938 31.2717 82.3873 31.2114 82.4787 31.1408C82.5701 31.0701 82.6636 31.0057 82.7592 30.9475C82.8091 30.9184 82.8984 30.8707 83.0273 30.8042C83.1561 30.7418 83.2891 30.6733 83.4262 30.5984C83.5634 30.5236 83.686 30.453 83.794 30.3865C83.9021 30.3242 83.9603 30.2784 83.9686 30.2494C83.9852 30.2036 83.9935 30.1475 83.9935 30.081C83.9935 30.0145 83.9873 29.946 83.9748 29.8753C83.9665 29.8047 83.9624 29.7382 83.9624 29.6758C83.9624 29.6509 83.9727 29.601 83.9935 29.5262C84.0185 29.4514 84.0455 29.3745 84.0746 29.2956C84.1037 29.2166 84.1307 29.148 84.1556 29.0899C84.1805 29.0275 84.1972 28.9964 84.2055 28.9964V28.959C84.2055 28.9132 84.1951 28.8758 84.1743 28.8467C84.1577 28.8177 84.1494 28.7927 84.1494 28.7719C84.1494 28.747 84.1618 28.7241 84.1868 28.7034C84.2159 28.6784 84.2491 28.6535 84.2865 28.6286C84.3239 28.6036 84.3613 28.5787 84.3987 28.5538C84.4361 28.5288 84.4652 28.5039 84.486 28.479C84.4237 28.4873 84.3717 28.4977 84.3301 28.5101C84.2886 28.5226 84.2512 28.5351 84.2179 28.5475C84.1888 28.5558 84.1598 28.5641 84.1307 28.5725C84.1016 28.5808 84.0662 28.5849 84.0247 28.5849C83.9499 28.5849 83.8917 28.5787 83.8501 28.5662C83.8127 28.5538 83.7816 28.533 83.7566 28.5039C83.7317 28.4706 83.7068 28.427 83.6818 28.373C83.6611 28.3148 83.632 28.2421 83.5946 28.1548C83.5613 28.0758 83.5239 28.0114 83.4823 27.9615C83.4449 27.9117 83.4221 27.868 83.4138 27.8306C83.4055 27.7891 83.3992 27.7371 83.3951 27.6748C83.3909 27.6083 83.3888 27.5376 83.3888 27.4628C83.3888 27.388 83.3909 27.3091 83.3951 27.226C83.3992 27.1387 83.4034 27.0556 83.4075 26.9766C83.4159 26.8976 83.4242 26.8228 83.4325 26.7522C83.4408 26.6815 83.4491 26.6213 83.4574 26.5714C83.474 26.5714 83.4886 26.5527 83.5011 26.5153C83.5135 26.4779 83.5239 26.4343 83.5322 26.3844C83.5405 26.3304 83.5488 26.2784 83.5572 26.2285C83.5696 26.1745 83.5821 26.135 83.5946 26.1101C83.6029 26.0976 83.6133 26.0935 83.6257 26.0976C83.6382 26.0976 83.6444 26.0852 83.6444 26.0602C83.6444 26.0228 83.6673 25.9937 83.713 25.973C83.7587 25.9522 83.7982 25.9189 83.8314 25.8732C83.8688 25.815 83.8959 25.7465 83.9125 25.6675C83.9333 25.5844 83.9686 25.5137 84.0185 25.4556C84.0517 25.4182 84.0974 25.3911 84.1556 25.3745C84.2179 25.3579 84.2803 25.3226 84.3426 25.2685C84.3925 25.227 84.434 25.1813 84.4673 25.1314C84.5005 25.0815 84.5296 25.0358 84.5546 24.9943C84.5795 24.9527 84.6024 24.9174 84.6231 24.8883C84.6439 24.8592 84.6689 24.8446 84.6979 24.8446C84.7146 24.8446 84.7312 24.8467 84.7478 24.8509C84.7644 24.8509 84.779 24.8509 84.7914 24.8509H84.8102C84.8268 24.8509 84.8559 24.8488 84.8974 24.8446C84.9431 24.8363 84.993 24.8301 85.047 24.8259C85.1052 24.8176 85.1655 24.8114 85.2278 24.8072C85.2902 24.7989 85.3483 24.7948 85.4024 24.7948C85.4605 24.7948 85.5021 24.7989 85.527 24.8072C85.5561 24.8155 85.5769 24.8259 85.5894 24.8384C85.6018 24.8509 85.6122 24.8675 85.6205 24.8883C85.633 24.9049 85.6559 24.9236 85.6891 24.9444C85.7307 24.9735 85.7702 24.9943 85.8076 25.0067C85.8491 25.0192 85.8741 25.0296 85.8824 25.0379C85.8907 25.0504 85.8948 25.0753 85.8948 25.1127C85.899 25.1501 85.9011 25.1917 85.9011 25.2374C85.9011 25.2831 85.9031 25.3309 85.9073 25.3807C85.9115 25.4265 85.9177 25.468 85.926 25.5054C85.926 25.5137 85.9322 25.5324 85.9447 25.5615C85.9613 25.5865 85.978 25.6176 85.9946 25.655C86.0112 25.6924 86.0257 25.734 86.0382 25.7797C86.0548 25.8254 86.0631 25.8691 86.0631 25.9106C86.0631 25.9522 86.0548 25.9813 86.0382 25.9979C86.0257 26.0145 86.0195 26.0415 86.0195 26.0789C86.0195 26.133 86.032 26.2098 86.0569 26.3096C86.0818 26.4052 86.0943 26.4904 86.0943 26.5652C86.0943 26.5818 86.0902 26.6213 86.0818 26.6836C86.0735 26.746 86.0611 26.8166 86.0444 26.8956C86.032 26.9745 86.0154 27.0576 85.9946 27.1449C85.9738 27.228 85.9509 27.3008 85.926 27.3631C85.8886 27.4628 85.8533 27.5522 85.82 27.6312C85.7909 27.706 85.7535 27.7704 85.7078 27.8244C85.6663 27.8784 85.6122 27.92 85.5457 27.9491C85.4792 27.9782 85.3899 27.9927 85.2777 27.9927C85.1904 27.9927 85.1322 27.9615 85.1031 27.8992C85.074 27.8327 85.0595 27.7517 85.0595 27.6561C85.0595 27.4857 85.072 27.3195 85.0969 27.1574C85.126 26.9911 85.1405 26.8311 85.1405 26.6774C85.1405 26.5693 85.1364 26.4634 85.1281 26.3595C85.1239 26.2556 85.1115 26.1724 85.0907 26.1101C85.0699 26.0478 85.0346 25.9958 84.9847 25.9543C84.939 25.9127 84.8953 25.8566 84.8538 25.7859C84.8289 25.7485 84.8081 25.707 84.7914 25.6613C84.7748 25.6114 84.7561 25.5657 84.7353 25.5241C84.7187 25.4826 84.7 25.4472 84.6792 25.4182C84.6585 25.3891 84.6335 25.3745 84.6044 25.3745C84.567 25.3745 84.5296 25.3932 84.4922 25.4306C84.459 25.4639 84.4278 25.5096 84.3987 25.5678C84.3696 25.6218 84.3405 25.6841 84.3114 25.7548C84.2865 25.8254 84.2657 25.8961 84.2491 25.9667C84.2366 26.0166 84.2242 26.0706 84.2117 26.1288C84.2034 26.187 84.1909 26.2452 84.1743 26.3034C84.1577 26.3574 84.1369 26.4093 84.112 26.4592C84.0912 26.5049 84.06 26.5423 84.0185 26.5714C84.0309 26.6088 84.0475 26.64 84.0683 26.6649C84.0933 26.6857 84.1182 26.7065 84.1431 26.7273C84.1722 26.748 84.1992 26.7709 84.2242 26.7958C84.2491 26.8208 84.272 26.8561 84.2927 26.9018C84.3094 26.9475 84.3218 26.9974 84.3301 27.0514C84.3385 27.1013 84.3447 27.1532 84.3488 27.2073C84.3572 27.2571 84.3676 27.3091 84.38 27.3631C84.3925 27.413 84.4112 27.4608 84.4361 27.5065C84.4486 27.5314 84.4631 27.5543 84.4798 27.575C84.4964 27.5917 84.513 27.6125 84.5296 27.6374C84.5504 27.6582 84.5712 27.6831 84.592 27.7122C84.6127 27.7413 84.6377 27.7808 84.6668 27.8306V27.8493C84.6668 27.8576 84.6647 27.868 84.6605 27.8805C84.6605 27.893 84.6605 27.9034 84.6605 27.9117C84.6605 27.9325 84.673 27.9553 84.6979 27.9802C84.7229 28.0052 84.7353 28.0301 84.7353 28.0551C84.7353 28.1215 84.7083 28.1922 84.6543 28.267C84.6044 28.3377 84.5629 28.4083 84.5296 28.479C84.567 28.4665 84.6024 28.4499 84.6356 28.4291C84.673 28.4083 84.7063 28.3875 84.7353 28.3667C84.7686 28.346 84.7998 28.3273 84.8289 28.3106C84.8621 28.294 84.8933 28.2857 84.9224 28.2857C84.9431 28.2857 84.9722 28.2961 85.0096 28.3169C85.047 28.3335 85.0657 28.3647 85.0657 28.4104C85.0657 28.4478 85.0533 28.5101 85.0283 28.5974C85.0076 28.6847 84.9805 28.7699 84.9473 28.853C84.9431 28.8654 84.9265 28.8904 84.8974 28.9278C84.8725 28.9652 84.8579 28.988 84.8538 28.9964C84.8205 29.1293 84.7998 29.281 84.7914 29.4514C84.7831 29.6218 84.7748 29.7797 84.7665 29.9252C84.8787 29.9003 84.9868 29.8732 85.0907 29.8442C85.1987 29.8109 85.3068 29.7756 85.4148 29.7382C85.4938 29.7091 85.5707 29.6738 85.6455 29.6322C85.7203 29.5906 85.7992 29.5699 85.8824 29.5699C85.9198 29.5699 85.9655 29.5803 86.0195 29.601C86.0195 29.6509 86.0008 29.6883 85.9634 29.7132C85.9302 29.734 85.8886 29.7506 85.8387 29.7631C85.793 29.7714 85.7431 29.7797 85.6891 29.7881C85.6392 29.7964 85.5935 29.8109 85.552 29.8317C85.5395 29.84 85.5229 29.8566 85.5021 29.8816C85.4855 29.9065 85.473 29.921 85.4647 29.9252C85.4148 29.9418 85.3525 29.9564 85.2777 29.9688C85.207 29.9813 85.1364 29.9958 85.0657 30.0125C84.9951 30.0291 84.9348 30.0478 84.885 30.0686C84.8351 30.0935 84.8102 30.1247 84.8102 30.1621C84.8102 30.1912 84.8143 30.2265 84.8226 30.2681C84.8309 30.3096 84.8392 30.3491 84.8476 30.3865C84.86 30.4281 84.8704 30.4634 84.8787 30.4925C84.8912 30.5216 84.8995 30.5361 84.9037 30.5361V30.5299C84.9327 30.692 84.9639 30.8457 84.9972 30.9912C85.0304 31.1366 85.0657 31.28 85.1031 31.4213C85.1405 31.5668 85.18 31.7143 85.2216 31.8639C85.2631 32.0177 85.3109 32.1777 85.365 32.3439C85.3733 32.3688 85.3878 32.3959 85.4086 32.425C85.4335 32.454 85.4522 32.4894 85.4647 32.5309C85.4896 32.614 85.5063 32.6847 85.5146 32.7429C85.527 32.8052 85.5561 32.8738 85.6018 32.9486C85.6268 33.0151 85.6476 33.0753 85.6642 33.1294C85.6808 33.1876 85.6954 33.2416 85.7078 33.2915C85.7203 33.3413 85.7307 33.3912 85.739 33.4411C85.7515 33.4909 85.7681 33.545 85.7889 33.6031C85.7972 33.6322 85.8117 33.6613 85.8325 33.6904C85.8533 33.7237 85.8699 33.7569 85.8824 33.7902C85.8948 33.8276 85.9011 33.865 85.9011 33.9024C85.9052 33.9439 85.9135 33.9834 85.926 34.0208C85.9509 34.0915 85.978 34.158 86.007 34.2203C86.0361 34.2826 86.0631 34.3491 86.0881 34.4198C86.1172 34.4904 86.14 34.5673 86.1567 34.6504C86.1774 34.7335 86.1878 34.8333 86.1878 34.9496C86.1878 35.0411 86.1795 35.12 86.1629 35.1865ZM85.5083 35.6478C85.5166 35.6312 85.5208 35.6021 85.5208 35.5606C85.5208 35.4899 85.5021 35.4047 85.4647 35.305C85.4315 35.2094 85.392 35.1117 85.3463 35.012C85.3047 34.9164 85.2652 34.827 85.2278 34.7439C85.1946 34.6608 85.1779 34.5964 85.1779 34.5507C85.1779 34.5341 85.1779 34.5174 85.1779 34.5008C85.1821 34.4883 85.1842 34.4759 85.1842 34.4634C85.1842 34.4426 85.1696 34.4218 85.1405 34.4011C85.1156 34.3844 85.099 34.3657 85.0907 34.345C85.0782 34.3242 85.0678 34.2992 85.0595 34.2702C85.0553 34.2452 85.0491 34.2244 85.0408 34.2078C84.9909 34.1122 84.9577 34.0395 84.9411 33.9896C84.9286 33.9398 84.9224 33.8961 84.9224 33.8587C84.9224 33.8089 84.914 33.7715 84.8974 33.7465C84.885 33.7257 84.8704 33.705 84.8538 33.6842C84.8413 33.6634 84.8268 33.6385 84.8102 33.6094C84.7977 33.5803 84.7914 33.5346 84.7914 33.4722C84.7914 33.3974 84.7811 33.333 84.7603 33.279C84.7395 33.225 84.7146 33.1751 84.6855 33.1294C84.6564 33.0837 84.6273 33.0379 84.5982 32.9922C84.5691 32.9507 84.5463 32.905 84.5296 32.8551C84.5255 32.8468 84.5213 32.8301 84.5172 32.8052C84.513 32.7803 84.5088 32.7533 84.5047 32.7242C84.5047 32.6992 84.5005 32.6764 84.4922 32.6556C84.4881 32.6348 84.4818 32.6244 84.4735 32.6244H84.4361C84.432 32.6244 84.4299 32.6182 84.4299 32.6057C84.4299 32.5974 84.4299 32.587 84.4299 32.5746C84.434 32.5621 84.4361 32.5517 84.4361 32.5434V32.5309C84.4029 32.4561 84.3842 32.3647 84.38 32.2566C84.3759 32.1527 84.3634 32.0572 84.3426 31.9699C84.3385 31.9574 84.3239 31.9366 84.299 31.9075C84.274 31.8785 84.2574 31.8535 84.2491 31.8327C84.22 31.7621 84.2013 31.6935 84.193 31.627C84.1888 31.5647 84.1764 31.5086 84.1556 31.4587C84.085 31.3008 84.0434 31.1699 84.0309 31.066C84.0185 30.9621 84.0122 30.8997 84.0122 30.879C84.0122 30.8665 84.0122 30.8457 84.0122 30.8166C84.0122 30.7875 84.0081 30.7584 83.9998 30.7294C83.9956 30.7003 83.9852 30.6733 83.9686 30.6483C83.952 30.6275 83.927 30.6171 83.8938 30.6171C83.8813 30.6171 83.8668 30.6192 83.8501 30.6234C83.8377 30.6317 83.8273 30.64 83.819 30.6483C83.8065 30.6566 83.7961 30.6649 83.7878 30.6733H83.7629C83.7172 30.6733 83.6839 30.6774 83.6631 30.6857C83.6424 30.6982 83.6257 30.7107 83.6133 30.7231C83.6049 30.7397 83.5966 30.7543 83.5883 30.7668C83.58 30.7834 83.5675 30.7979 83.5509 30.8104C83.5343 30.8187 83.5094 30.8312 83.4761 30.8478C83.4429 30.8644 83.4075 30.879 83.3701 30.8914C83.3369 30.9081 83.3057 30.9205 83.2766 30.9288C83.2475 30.9413 83.2309 30.9475 83.2268 30.9475C83.2018 30.9475 83.1894 30.9538 83.1894 30.9662C83.1894 30.9787 83.1852 30.9891 83.1769 30.9974C83.1478 31.0099 83.1083 31.0161 83.0585 31.0161C83.0127 31.0203 82.9753 31.0286 82.9462 31.041C82.9172 31.0577 82.8943 31.0805 82.8777 31.1096C82.8652 31.1387 82.8423 31.1616 82.8091 31.1782C82.7759 31.1948 82.7364 31.2031 82.6907 31.2031C82.6449 31.2031 82.6055 31.2114 82.5722 31.2281C82.539 31.2447 82.4891 31.2738 82.4226 31.3153C82.352 31.361 82.2813 31.4068 82.2107 31.4525C82.14 31.5023 82.0797 31.546 82.0299 31.5834C81.9758 31.6249 81.9488 31.6478 81.9488 31.652C81.9364 31.652 81.926 31.6499 81.9177 31.6457C81.9052 31.6457 81.8948 31.6457 81.8865 31.6457C81.8408 31.6457 81.7909 31.6644 81.7369 31.7018C81.6787 31.7434 81.6268 31.787 81.581 31.8327C81.5312 31.8826 81.4896 31.9262 81.4564 31.9636C81.419 32.0052 81.3961 32.026 81.3878 32.026C81.3712 32.026 81.3566 32.0239 81.3442 32.0198C81.3275 32.0156 81.313 32.0135 81.3005 32.0135C81.3047 32.0135 81.2901 32.0281 81.2569 32.0572C81.2195 32.0862 81.18 32.1195 81.1384 32.1569C81.0927 32.1943 81.0491 32.2275 81.0075 32.2566C80.966 32.2857 80.939 32.3003 80.9265 32.3003C80.914 32.3003 80.9016 32.2982 80.8891 32.294C80.8766 32.294 80.8662 32.294 80.8579 32.294C80.8413 32.294 80.8184 32.3086 80.7893 32.3377C80.7603 32.3709 80.7312 32.4083 80.7021 32.4499C80.6688 32.4914 80.6377 32.533 80.6086 32.5746C80.5753 32.6161 80.5483 32.6473 80.5275 32.6681C80.4652 32.7263 80.3945 32.772 80.3156 32.8052C80.2325 32.8426 80.1618 32.8904 80.1036 32.9486C80.0704 32.9818 80.0496 33.0234 80.0413 33.0733C80.033 33.1231 80.0247 33.1605 80.0164 33.1855C79.954 33.2146 79.9021 33.254 79.8605 33.3039C79.8148 33.3579 79.7774 33.4099 79.7483 33.4598C79.7151 33.5138 79.6901 33.5574 79.6735 33.5907C79.6569 33.6281 79.6465 33.6468 79.6423 33.6468C79.6257 33.7008 79.6153 33.7548 79.6112 33.8089C79.6028 33.867 79.5987 33.9231 79.5987 33.9772C79.5987 34.0769 79.607 34.1517 79.6236 34.2016C79.6402 34.2556 79.6631 34.2951 79.6922 34.32C79.7213 34.345 79.7525 34.3637 79.7857 34.3761C79.8148 34.3886 79.846 34.4094 79.8792 34.4385C79.9789 34.5299 80.0704 34.6026 80.1535 34.6567C80.2325 34.7148 80.3031 34.7585 80.3654 34.7876C80.4236 34.8208 80.4756 34.8457 80.5213 34.8624C80.5628 34.879 80.5961 34.8935 80.621 34.906C80.6584 34.9268 80.7 34.9372 80.7457 34.9372C80.7706 34.9372 80.7956 34.9351 80.8205 34.9309C80.8454 34.9268 80.8725 34.9247 80.9016 34.9247C80.939 34.9247 80.968 34.9289 80.9888 34.9372C81.0054 34.9455 81.0221 34.9559 81.0387 34.9683C81.0512 34.9808 81.0636 34.9933 81.0761 35.0057C81.0886 35.0224 81.1073 35.0348 81.1322 35.0432C81.2195 35.1013 81.2964 35.147 81.3629 35.1803C81.4252 35.2135 81.4792 35.2385 81.5249 35.2551C81.5706 35.2759 81.6101 35.2904 81.6434 35.2987C81.6766 35.307 81.7078 35.3154 81.7369 35.3237C81.8117 35.3445 81.8803 35.3632 81.9426 35.3798C82.0008 35.3964 82.061 35.4109 82.1234 35.4234C82.1816 35.4359 82.2439 35.4483 82.3104 35.4608C82.3727 35.4774 82.4455 35.4941 82.5286 35.5107C82.6242 35.5315 82.6948 35.5543 82.7405 35.5793C82.7862 35.6042 82.8382 35.6271 82.8964 35.6478C82.967 35.6686 83.0377 35.6769 83.1083 35.6728C83.179 35.6686 83.2496 35.6769 83.3203 35.6977C83.3286 35.7019 83.3494 35.7164 83.3826 35.7413C83.42 35.7663 83.4449 35.7808 83.4574 35.785C83.5655 35.8182 83.6798 35.8328 83.8003 35.8286C83.9208 35.8245 84.0392 35.8265 84.1556 35.8348C84.2512 35.8432 84.3447 35.8598 84.4361 35.8847C84.5276 35.9138 84.6044 35.9284 84.6668 35.9284C84.6959 35.9284 84.7353 35.92 84.7852 35.9034C84.8392 35.8909 84.8933 35.8743 84.9473 35.8535C85.0013 35.8369 85.047 35.8203 85.0844 35.8037C85.1218 35.7912 85.1405 35.785 85.1405 35.785C85.1489 35.785 85.1592 35.785 85.1717 35.785C85.1842 35.7891 85.1966 35.7912 85.2091 35.7912C85.2257 35.7912 85.2507 35.785 85.2839 35.7725C85.3172 35.76 85.3483 35.7455 85.3774 35.7289C85.4107 35.7122 85.4398 35.6956 85.4647 35.679C85.4896 35.6624 85.5042 35.652 85.5083 35.6478ZM87.2787 24.3397C87.258 24.4311 87.2206 24.5226 87.1665 24.614C87.1167 24.7013 87.0751 24.7948 87.0419 24.8945C87.0335 24.9153 87.0273 24.9465 87.0232 24.988C87.019 25.0254 87.0107 25.0587 86.9982 25.0878C86.9899 25.0961 86.9733 25.1044 86.9483 25.1127C86.9234 25.1169 86.9089 25.1231 86.9047 25.1314C86.8839 25.1771 86.8673 25.2124 86.8548 25.2374C86.8424 25.2623 86.8278 25.2852 86.8112 25.3059C86.7987 25.3267 86.778 25.3475 86.7489 25.3683C86.7198 25.3891 86.6782 25.4182 86.6242 25.4556C86.6117 25.4639 86.5909 25.4826 86.5619 25.5117C86.5328 25.5407 86.4995 25.5698 86.4621 25.5989C86.4247 25.628 86.3852 25.655 86.3437 25.68C86.3063 25.7008 86.2689 25.7111 86.2315 25.7111C86.2107 25.7111 86.1837 25.7028 86.1504 25.6862C86.1172 25.6696 86.1005 25.6446 86.1005 25.6114C86.1005 25.5865 86.1068 25.5574 86.1193 25.5241C86.1359 25.4909 86.1546 25.4556 86.1754 25.4182C86.2003 25.3807 86.2231 25.3454 86.2439 25.3122C86.2689 25.2748 86.2876 25.2457 86.3 25.2249C86.3125 25.2041 86.3187 25.1833 86.3187 25.1626C86.3187 25.1376 86.327 25.1127 86.3437 25.0878C86.3603 25.0545 86.3811 25.0213 86.406 24.988C86.4309 24.9548 86.458 24.9091 86.487 24.8509C86.5078 24.8052 86.5244 24.7511 86.5369 24.6888C86.5535 24.6223 86.5681 24.5828 86.5806 24.5704C86.593 24.5537 86.62 24.5433 86.6616 24.5392C86.7073 24.535 86.7572 24.5142 86.8112 24.4768C86.8486 24.4519 86.8777 24.4291 86.8985 24.4083C86.9193 24.3833 86.94 24.3646 86.9608 24.3522C86.9816 24.3355 87.0045 24.3231 87.0294 24.3148C87.0585 24.3065 87.098 24.3023 87.1478 24.3023C87.2019 24.3023 87.2455 24.3148 87.2787 24.3397Z" fill="#CFF26B"/>
</g>
<defs>
<filter id="filter0_i_0_1" x="0" y="12" width="195" height="68" filterUnits="userSpaceOnUse" color-interpolation-filters="sRGB">
<feFlood flood-opacity="0" result="BackgroundImageFix"/>
<feBlend mode="normal" in="SourceGraphic" in2="BackgroundImageFix" result="shape"/>
<feColorMatrix in="SourceAlpha" type="matrix" values="0 0 0 0 0 0 0 0 0 0 0 0 0 0 0 0 0 0 127 0" result="hardAlpha"/>
<feMorphology radius="8" operator="dilate" in="SourceAlpha" result="effect1_innerShadow_0_1"/>
<feOffset dy="16"/>
<feGaussianBlur stdDeviation="8"/>
<feComposite in2="hardAlpha" operator="arithmetic" k2="-1" k3="1"/>
<feColorMatrix type="matrix" values="0 0 0 0 0.0470588 0 0 0 0 0.0470588 0 0 0 0 0.0509804 0 0 0 0.1 0"/>
<feBlend mode="normal" in2="shape" result="effect1_innerShadow_0_1"/>
</filter>
<filter id="filter1_f_0_1" x="52" y="60" width="110" height="9" filterUnits="userSpaceOnUse" color-interpolation-filters="sRGB">
<feFlood flood-opacity="0" result="BackgroundImageFix"/>
<feBlend mode="normal" in="SourceGraphic" in2="BackgroundImageFix" result="shape"/>
<feGaussianBlur stdDeviation="2" result="effect1_foregroundBlur_0_1"/>
</filter>
<filter id="filter2_d_0_1" x="101.516" y="27.1365" width="63.1583" height="35.591" filterUnits="userSpaceOnUse" color-interpolation-filters="sRGB">
<feFlood flood-opacity="0" result="BackgroundImageFix"/>
<feColorMatrix in="SourceAlpha" type="matrix" values="0 0 0 0 0 0 0 0 0 0 0 0 0 0 0 0 0 0 127 0" result="hardAlpha"/>
<feOffset dy="1.34783"/>
<feGaussianBlur stdDeviation="0.673913"/>
<feComposite in2="hardAlpha" operator="out"/>
<feColorMatrix type="matrix" values="0 0 0 0 0 0 0 0 0 0 0 0 0 0 0 0 0 0 0.25 0"/>
<feBlend mode="normal" in2="BackgroundImageFix" result="effect1_dropShadow_0_1"/>
<feBlend mode="normal" in="SourceGraphic" in2="effect1_dropShadow_0_1" result="shape"/>
</filter>
<filter id="filter3_f_0_1" x="6" y="32" width="100" height="9" filterUnits="userSpaceOnUse" color-interpolation-filters="sRGB">
<feFlood flood-opacity="0" result="BackgroundImageFix"/>
<feBlend mode="normal" in="SourceGraphic" in2="BackgroundImageFix" result="shape"/>
<feGaussianBlur stdDeviation="2" result="effect1_foregroundBlur_0_1"/>
</filter>
<filter id="filter4_i_0_1" x="46.5408" y="0.800842" width="40.7379" height="37.3405" filterUnits="userSpaceOnUse" color-interpolation-filters="sRGB">
<feFlood flood-opacity="0" result="BackgroundImageFix"/>
<feBlend mode="normal" in="SourceGraphic" in2="BackgroundImageFix" result="shape"/>
<feColorMatrix in="SourceAlpha" type="matrix" values="0 0 0 0 0 0 0 0 0 0 0 0 0 0 0 0 0 0 127 0" result="hardAlpha"/>
<feOffset dy="1.59585"/>
<feGaussianBlur stdDeviation="0.797927"/>
<feComposite in2="hardAlpha" operator="arithmetic" k2="-1" k3="1"/>
<feColorMatrix type="matrix" values="0 0 0 0 0 0 0 0 0 0 0 0 0 0 0 0 0 0 0.25 0"/>
<feBlend mode="normal" in2="shape" result="effect1_innerShadow_0_1"/>
</filter>
</defs>
</svg>
